<?xml version="1.0" encoding="UTF-8"?>
<svg xmlns="http://www.w3.org/2000/svg" xmlns:xlink="http://www.w3.org/1999/xlink" width="100px" height="100px" viewBox="0 0 100 100" version="1.1">
<defs>
<clipPath id="clip1">
  <path d="M 4.636719 4.636719 L 95.4375 4.636719 L 95.4375 95.4375 L 4.636719 95.4375 Z M 4.636719 4.636719 "/>
</clipPath>
<clipPath id="clip2">
  <path d="M 34.738281 31.609375 L 65.277344 31.609375 L 65.277344 62 L 34.738281 62 Z M 34.738281 31.609375 "/>
</clipPath>
<clipPath id="clip3">
  <path d="M 35.417969 34.027344 L 65.277344 34.027344 L 65.277344 62 L 35.417969 62 Z M 35.417969 34.027344 "/>
</clipPath>
<clipPath id="clip4">
  <path d="M 16.484375 57.117188 L 83.484375 57.117188 L 83.484375 80.117188 L 16.484375 80.117188 Z M 16.484375 57.117188 "/>
</clipPath>
<clipPath id="clip5">
  <path d="M 30.132812 19.832031 L 69.933594 19.832031 L 69.933594 43 L 30.132812 43 Z M 30.132812 19.832031 "/>
</clipPath>
</defs>
<g id="surface1">
<g clip-path="url(#clip1)" clip-rule="nonzero">
<path style=" stroke:none;fill-rule:nonzero;fill:rgb(10.980392%,40.392157%,96.470588%);fill-opacity:1;" d="M 95.4375 50.039062 C 95.4375 50.777344 95.417969 51.523438 95.382812 52.265625 C 95.34375 53.003906 95.289062 53.746094 95.21875 54.488281 C 95.144531 55.226562 95.054688 55.960938 94.945312 56.699219 C 94.835938 57.433594 94.710938 58.164062 94.5625 58.894531 C 94.421875 59.621094 94.257812 60.347656 94.074219 61.066406 C 93.898438 61.789062 93.699219 62.503906 93.480469 63.214844 C 93.265625 63.925781 93.035156 64.632812 92.78125 65.332031 C 92.53125 66.03125 92.265625 66.722656 91.980469 67.410156 C 91.695312 68.097656 91.394531 68.777344 91.078125 69.445312 C 90.761719 70.121094 90.425781 70.78125 90.078125 71.4375 C 89.722656 72.09375 89.359375 72.742188 88.976562 73.378906 C 88.597656 74.015625 88.195312 74.640625 87.785156 75.261719 C 87.371094 75.875 86.945312 76.484375 86.5 77.082031 C 86.058594 77.675781 85.605469 78.261719 85.132812 78.839844 C 84.660156 79.414062 84.175781 79.976562 83.675781 80.527344 C 83.175781 81.078125 82.664062 81.613281 82.140625 82.140625 C 81.613281 82.664062 81.078125 83.175781 80.527344 83.675781 C 79.976562 84.175781 79.414062 84.660156 78.839844 85.132812 C 78.261719 85.605469 77.675781 86.058594 77.082031 86.5 C 76.484375 86.945312 75.875 87.371094 75.261719 87.785156 C 74.640625 88.195312 74.015625 88.597656 73.378906 88.976562 C 72.742188 89.359375 72.09375 89.722656 71.4375 90.078125 C 70.78125 90.425781 70.121094 90.761719 69.445312 91.078125 C 68.777344 91.394531 68.097656 91.695312 67.410156 91.980469 C 66.722656 92.265625 66.03125 92.53125 65.332031 92.78125 C 64.632812 93.035156 63.925781 93.265625 63.214844 93.480469 C 62.503906 93.699219 61.789062 93.898438 61.066406 94.074219 C 60.347656 94.257812 59.621094 94.421875 58.894531 94.5625 C 58.164062 94.710938 57.433594 94.835938 56.699219 94.945312 C 55.960938 95.054688 55.226562 95.144531 54.488281 95.21875 C 53.746094 95.289062 53.003906 95.34375 52.265625 95.382812 C 51.523438 95.417969 50.777344 95.4375 50.039062 95.4375 C 49.292969 95.4375 48.550781 95.417969 47.808594 95.382812 C 47.066406 95.34375 46.328125 95.289062 45.585938 95.21875 C 44.847656 95.144531 44.109375 95.054688 43.375 94.945312 C 42.640625 94.835938 41.90625 94.710938 41.179688 94.5625 C 40.453125 94.421875 39.726562 94.257812 39.003906 94.074219 C 38.285156 93.898438 37.566406 93.699219 36.855469 93.480469 C 36.144531 93.265625 35.441406 93.035156 34.742188 92.78125 C 34.042969 92.53125 33.351562 92.265625 32.664062 91.980469 C 31.976562 91.695312 31.296875 91.394531 30.625 91.078125 C 29.953125 90.761719 29.292969 90.425781 28.636719 90.078125 C 27.980469 89.722656 27.332031 89.359375 26.695312 88.976562 C 26.058594 88.597656 25.429688 88.195312 24.8125 87.785156 C 24.195312 87.371094 23.589844 86.945312 22.992188 86.5 C 22.394531 86.058594 21.808594 85.605469 21.234375 85.132812 C 20.660156 84.660156 20.097656 84.175781 19.546875 83.675781 C 18.996094 83.175781 18.460938 82.664062 17.933594 82.140625 C 17.410156 81.613281 16.898438 81.078125 16.398438 80.527344 C 15.898438 79.976562 15.414062 79.414062 14.941406 78.839844 C 14.46875 78.261719 14.015625 77.675781 13.570312 77.082031 C 13.128906 76.484375 12.699219 75.875 12.289062 75.261719 C 11.875 74.640625 11.476562 74.015625 11.09375 73.378906 C 10.714844 72.742188 10.347656 72.09375 9.996094 71.4375 C 9.644531 70.78125 9.3125 70.121094 8.996094 69.445312 C 8.679688 68.777344 8.375 68.097656 8.09375 67.410156 C 7.808594 66.722656 7.542969 66.03125 7.292969 65.332031 C 7.039062 64.632812 6.804688 63.925781 6.59375 63.214844 C 6.375 62.503906 6.175781 61.789062 5.996094 61.066406 C 5.816406 60.347656 5.652344 59.621094 5.507812 58.894531 C 5.363281 58.164062 5.238281 57.433594 5.125 56.699219 C 5.019531 55.960938 4.929688 55.226562 4.855469 54.488281 C 4.78125 53.746094 4.726562 53.003906 4.691406 52.265625 C 4.65625 51.523438 4.636719 50.777344 4.636719 50.039062 C 4.636719 49.292969 4.65625 48.550781 4.691406 47.808594 C 4.726562 47.066406 4.78125 46.328125 4.855469 45.585938 C 4.929688 44.847656 5.019531 44.109375 5.125 43.375 C 5.238281 42.640625 5.363281 41.90625 5.507812 41.179688 C 5.652344 40.453125 5.816406 39.726562 5.996094 39.003906 C 6.175781 38.285156 6.375 37.566406 6.59375 36.855469 C 6.804688 36.144531 7.039062 35.441406 7.292969 34.742188 C 7.542969 34.042969 7.808594 33.351562 8.09375 32.664062 C 8.375 31.976562 8.679688 31.296875 8.996094 30.625 C 9.3125 29.953125 9.644531 29.292969 9.996094 28.636719 C 10.347656 27.980469 10.714844 27.332031 11.09375 26.695312 C 11.476562 26.058594 11.875 25.429688 12.289062 24.8125 C 12.699219 24.195312 13.128906 23.589844 13.570312 22.992188 C 14.015625 22.394531 14.46875 21.808594 14.941406 21.234375 C 15.414062 20.660156 15.898438 20.097656 16.398438 19.546875 C 16.898438 18.996094 17.410156 18.460938 17.933594 17.933594 C 18.460938 17.410156 18.996094 16.898438 19.546875 16.398438 C 20.097656 15.898438 20.660156 15.414062 21.234375 14.941406 C 21.808594 14.46875 22.394531 14.015625 22.992188 13.570312 C 23.589844 13.128906 24.195312 12.699219 24.8125 12.289062 C 25.429688 11.875 26.058594 11.476562 26.695312 11.09375 C 27.332031 10.714844 27.980469 10.347656 28.636719 9.996094 C 29.292969 9.644531 29.953125 9.3125 30.625 8.996094 C 31.296875 8.679688 31.976562 8.375 32.664062 8.09375 C 33.351562 7.808594 34.042969 7.542969 34.742188 7.292969 C 35.441406 7.039062 36.144531 6.804688 36.855469 6.59375 C 37.566406 6.375 38.285156 6.175781 39.003906 5.996094 C 39.726562 5.816406 40.453125 5.652344 41.179688 5.507812 C 41.90625 5.363281 42.640625 5.238281 43.375 5.125 C 44.109375 5.019531 44.847656 4.929688 45.585938 4.855469 C 46.328125 4.78125 47.066406 4.726562 47.808594 4.691406 C 48.550781 4.65625 49.292969 4.636719 50.039062 4.636719 C 50.777344 4.636719 51.523438 4.65625 52.265625 4.691406 C 53.003906 4.726562 53.746094 4.78125 54.488281 4.855469 C 55.226562 4.929688 55.960938 5.019531 56.699219 5.125 C 57.433594 5.238281 58.164062 5.363281 58.894531 5.507812 C 59.621094 5.652344 60.347656 5.816406 61.066406 5.996094 C 61.789062 6.175781 62.503906 6.375 63.214844 6.59375 C 63.925781 6.804688 64.632812 7.039062 65.332031 7.292969 C 66.03125 7.542969 66.722656 7.808594 67.410156 8.09375 C 68.097656 8.375 68.777344 8.679688 69.445312 8.996094 C 70.121094 9.3125 70.78125 9.644531 71.4375 9.996094 C 72.09375 10.347656 72.742188 10.714844 73.378906 11.09375 C 74.015625 11.476562 74.640625 11.875 75.261719 12.289062 C 75.875 12.699219 76.484375 13.128906 77.082031 13.570312 C 77.675781 14.015625 78.261719 14.46875 78.839844 14.941406 C 79.414062 15.414062 79.976562 15.898438 80.527344 16.398438 C 81.078125 16.898438 81.613281 17.410156 82.140625 17.933594 C 82.664062 18.460938 83.175781 18.996094 83.675781 19.546875 C 84.175781 20.097656 84.660156 20.660156 85.132812 21.234375 C 85.605469 21.808594 86.058594 22.394531 86.5 22.992188 C 86.945312 23.589844 87.371094 24.195312 87.785156 24.8125 C 88.195312 25.429688 88.597656 26.058594 88.976562 26.695312 C 89.359375 27.332031 89.722656 27.980469 90.078125 28.636719 C 90.425781 29.292969 90.761719 29.953125 91.078125 30.625 C 91.394531 31.296875 91.695312 31.976562 91.980469 32.664062 C 92.265625 33.351562 92.53125 34.042969 92.78125 34.742188 C 93.035156 35.441406 93.265625 36.144531 93.480469 36.855469 C 93.699219 37.566406 93.898438 38.285156 94.074219 39.003906 C 94.257812 39.726562 94.421875 40.453125 94.5625 41.179688 C 94.710938 41.90625 94.835938 42.640625 94.945312 43.375 C 95.054688 44.109375 95.144531 44.847656 95.21875 45.585938 C 95.289062 46.328125 95.34375 47.066406 95.382812 47.808594 C 95.417969 48.550781 95.4375 49.292969 95.4375 50.039062 Z M 95.4375 50.039062 "/>
</g>
<path style=" stroke:none;fill-rule:nonzero;fill:rgb(10.980392%,40.392157%,96.470588%);fill-opacity:1;" d="M 92.804688 50.039062 C 92.804688 51.4375 92.734375 52.835938 92.601562 54.230469 C 92.460938 55.625 92.253906 57.007812 91.984375 58.378906 C 91.710938 59.753906 91.371094 61.109375 90.964844 62.453125 C 90.558594 63.792969 90.085938 65.109375 89.546875 66.402344 C 89.015625 67.699219 88.414062 68.960938 87.753906 70.199219 C 87.09375 71.433594 86.375 72.632812 85.59375 73.796875 C 84.820312 74.960938 83.984375 76.085938 83.097656 77.167969 C 82.207031 78.253906 81.269531 79.289062 80.277344 80.277344 C 79.289062 81.269531 78.253906 82.207031 77.167969 83.097656 C 76.085938 83.984375 74.960938 84.820312 73.796875 85.59375 C 72.632812 86.375 71.433594 87.09375 70.199219 87.753906 C 68.960938 88.414062 67.699219 89.015625 66.402344 89.546875 C 65.109375 90.085938 63.792969 90.558594 62.453125 90.964844 C 61.109375 91.371094 59.753906 91.710938 58.378906 91.984375 C 57.007812 92.253906 55.625 92.460938 54.230469 92.601562 C 52.835938 92.734375 51.4375 92.804688 50.039062 92.804688 C 48.636719 92.804688 47.238281 92.734375 45.84375 92.601562 C 44.449219 92.460938 43.066406 92.253906 41.695312 91.984375 C 40.320312 91.710938 38.960938 91.371094 37.621094 90.964844 C 36.28125 90.558594 34.964844 90.085938 33.667969 89.546875 C 32.375 89.015625 31.113281 88.414062 29.875 87.753906 C 28.640625 87.09375 27.441406 86.375 26.273438 85.59375 C 25.109375 84.820312 23.988281 83.984375 22.90625 83.097656 C 21.820312 82.207031 20.785156 81.269531 19.792969 80.277344 C 18.804688 79.289062 17.867188 78.253906 16.976562 77.167969 C 16.089844 76.085938 15.253906 74.960938 14.476562 73.796875 C 13.699219 72.632812 12.980469 71.433594 12.316406 70.199219 C 11.660156 68.960938 11.058594 67.699219 10.523438 66.402344 C 9.988281 65.109375 9.515625 63.792969 9.109375 62.453125 C 8.703125 61.109375 8.363281 59.753906 8.089844 58.378906 C 7.816406 57.007812 7.613281 55.625 7.472656 54.230469 C 7.335938 52.835938 7.265625 51.4375 7.265625 50.039062 C 7.265625 48.636719 7.335938 47.238281 7.472656 45.84375 C 7.613281 44.449219 7.816406 43.066406 8.089844 41.695312 C 8.363281 40.320312 8.703125 38.960938 9.109375 37.621094 C 9.515625 36.28125 9.988281 34.964844 10.523438 33.667969 C 11.058594 32.375 11.660156 31.113281 12.316406 29.875 C 12.980469 28.640625 13.699219 27.441406 14.476562 26.273438 C 15.253906 25.109375 16.089844 23.988281 16.976562 22.90625 C 17.867188 21.820312 18.804688 20.785156 19.792969 19.792969 C 20.785156 18.804688 21.820312 17.867188 22.90625 16.976562 C 23.988281 16.089844 25.109375 15.253906 26.273438 14.476562 C 27.441406 13.699219 28.640625 12.980469 29.875 12.316406 C 31.113281 11.660156 32.375 11.058594 33.667969 10.523438 C 34.964844 9.988281 36.28125 9.515625 37.621094 9.109375 C 38.960938 8.703125 40.320312 8.363281 41.695312 8.089844 C 43.066406 7.816406 44.449219 7.613281 45.84375 7.472656 C 47.238281 7.335938 48.636719 7.265625 50.039062 7.265625 C 51.4375 7.265625 52.835938 7.335938 54.230469 7.472656 C 55.625 7.613281 57.007812 7.816406 58.378906 8.089844 C 59.753906 8.363281 61.109375 8.703125 62.453125 9.109375 C 63.792969 9.515625 65.109375 9.988281 66.402344 10.523438 C 67.699219 11.058594 68.960938 11.660156 70.199219 12.316406 C 71.433594 12.980469 72.632812 13.699219 73.796875 14.476562 C 74.960938 15.253906 76.085938 16.089844 77.167969 16.976562 C 78.253906 17.867188 79.289062 18.804688 80.277344 19.792969 C 81.269531 20.785156 82.207031 21.820312 83.097656 22.90625 C 83.984375 23.988281 84.820312 25.109375 85.59375 26.273438 C 86.375 27.441406 87.09375 28.640625 87.753906 29.875 C 88.414062 31.113281 89.015625 32.375 89.546875 33.667969 C 90.085938 34.964844 90.558594 36.28125 90.964844 37.621094 C 91.371094 38.960938 91.710938 40.320312 91.984375 41.695312 C 92.253906 43.066406 92.460938 44.449219 92.601562 45.84375 C 92.734375 47.238281 92.804688 48.636719 92.804688 50.039062 Z M 92.804688 50.039062 "/>
<path style=" stroke:none;fill-rule:nonzero;fill:rgb(0%,0%,0%);fill-opacity:1;" d="M 86.226562 50.039062 C 86.226562 51.21875 86.167969 52.402344 86.050781 53.582031 C 85.933594 54.761719 85.761719 55.933594 85.53125 57.097656 C 85.296875 58.261719 85.007812 59.40625 84.667969 60.542969 C 84.324219 61.675781 83.925781 62.789062 83.472656 63.886719 C 83.015625 64.980469 82.511719 66.050781 81.953125 67.09375 C 81.394531 68.140625 80.785156 69.15625 80.125 70.140625 C 79.46875 71.125 78.761719 72.078125 78.011719 72.996094 C 77.257812 73.910156 76.464844 74.789062 75.625 75.625 C 74.789062 76.464844 73.910156 77.257812 72.996094 78.011719 C 72.078125 78.761719 71.125 79.46875 70.140625 80.125 C 69.15625 80.785156 68.140625 81.394531 67.09375 81.953125 C 66.050781 82.511719 64.980469 83.015625 63.886719 83.472656 C 62.789062 83.925781 61.675781 84.324219 60.542969 84.667969 C 59.40625 85.007812 58.261719 85.296875 57.097656 85.53125 C 55.933594 85.761719 54.761719 85.933594 53.582031 86.050781 C 52.402344 86.167969 51.21875 86.226562 50.039062 86.226562 C 48.851562 86.226562 47.667969 86.167969 46.488281 86.050781 C 45.308594 85.933594 44.136719 85.761719 42.976562 85.53125 C 41.8125 85.296875 40.664062 85.007812 39.53125 84.667969 C 38.398438 84.324219 37.28125 83.925781 36.1875 83.472656 C 35.09375 83.015625 34.023438 82.511719 32.976562 81.953125 C 31.933594 81.394531 30.917969 80.785156 29.929688 80.125 C 28.945312 79.46875 27.996094 78.761719 27.078125 78.011719 C 26.164062 77.257812 25.285156 76.464844 24.445312 75.625 C 23.609375 74.789062 22.8125 73.910156 22.0625 72.996094 C 21.3125 72.078125 20.605469 71.125 19.945312 70.140625 C 19.289062 69.15625 18.679688 68.140625 18.121094 67.09375 C 17.5625 66.050781 17.058594 64.980469 16.601562 63.886719 C 16.148438 62.789062 15.75 61.675781 15.40625 60.542969 C 15.0625 59.40625 14.777344 58.261719 14.542969 57.097656 C 14.3125 55.933594 14.136719 54.761719 14.023438 53.582031 C 13.90625 52.402344 13.847656 51.21875 13.847656 50.039062 C 13.847656 48.851562 13.90625 47.667969 14.023438 46.488281 C 14.136719 45.308594 14.3125 44.136719 14.542969 42.976562 C 14.777344 41.8125 15.0625 40.664062 15.40625 39.53125 C 15.75 38.398438 16.148438 37.28125 16.601562 36.1875 C 17.058594 35.09375 17.5625 34.023438 18.121094 32.976562 C 18.679688 31.933594 19.289062 30.917969 19.945312 29.929688 C 20.605469 28.945312 21.3125 27.996094 22.0625 27.078125 C 22.8125 26.164062 23.609375 25.285156 24.445312 24.445312 C 25.285156 23.609375 26.164062 22.8125 27.078125 22.0625 C 27.996094 21.3125 28.945312 20.605469 29.929688 19.945312 C 30.917969 19.289062 31.933594 18.679688 32.976562 18.121094 C 34.023438 17.5625 35.09375 17.058594 36.1875 16.601562 C 37.28125 16.148438 38.398438 15.75 39.53125 15.40625 C 40.664062 15.0625 41.8125 14.777344 42.976562 14.542969 C 44.136719 14.3125 45.308594 14.136719 46.488281 14.023438 C 47.667969 13.90625 48.851562 13.847656 50.039062 13.847656 C 51.21875 13.847656 52.402344 13.90625 53.582031 14.023438 C 54.761719 14.136719 55.933594 14.3125 57.097656 14.542969 C 58.261719 14.777344 59.40625 15.0625 60.542969 15.40625 C 61.675781 15.75 62.789062 16.148438 63.886719 16.601562 C 64.980469 17.058594 66.050781 17.5625 67.09375 18.121094 C 68.140625 18.679688 69.15625 19.289062 70.140625 19.945312 C 71.125 20.605469 72.078125 21.3125 72.996094 22.0625 C 73.910156 22.8125 74.789062 23.609375 75.625 24.445312 C 76.464844 25.285156 77.257812 26.164062 78.011719 27.078125 C 78.761719 27.996094 79.46875 28.945312 80.125 29.929688 C 80.785156 30.917969 81.394531 31.933594 81.953125 32.976562 C 82.511719 34.023438 83.015625 35.09375 83.472656 36.1875 C 83.925781 37.28125 84.324219 38.398438 84.667969 39.53125 C 85.007812 40.664062 85.296875 41.8125 85.53125 42.976562 C 85.761719 44.136719 85.933594 45.308594 86.050781 46.488281 C 86.167969 47.667969 86.226562 48.851562 86.226562 50.039062 Z M 86.226562 50.039062 "/>
<g clip-path="url(#clip2)" clip-rule="nonzero">
<path style=" stroke:none;fill-rule:nonzero;fill:rgb(89.411765%,89.803922%,85.098039%);fill-opacity:1;" d="M 34.921875 45.960938 C 35.113281 41.425781 37.460938 37 41.183594 34.40625 C 43.144531 33.039062 45.449219 32.175781 47.820312 31.890625 C 50.191406 31.605469 52.628906 31.898438 54.878906 32.710938 C 59.53125 34.390625 63.292969 38.417969 64.535156 43.203125 C 65.304688 46.171875 65.125 49.375 64.03125 52.242188 C 62.9375 55.105469 60.933594 57.613281 58.378906 59.316406 C 55.3125 61.359375 51.476562 62.207031 47.835938 61.660156 C 44.191406 61.113281 40.777344 59.179688 38.425781 56.347656 C 36.039062 53.472656 34.769531 49.695312 34.921875 45.960938 "/>
</g>
<path style=" stroke:none;fill-rule:nonzero;fill:rgb(97.254902%,97.254902%,96.078431%);fill-opacity:1;" d="M 39.617188 37.726562 C 40.824219 36.199219 42.371094 34.945312 44.101562 34.042969 C 44.601562 33.785156 45.121094 33.550781 45.671875 33.414062 C 46.21875 33.28125 46.800781 33.25 47.347656 33.394531 C 47.703125 33.484375 48.042969 33.652344 48.324219 33.890625 C 48.601562 34.132812 48.824219 34.449219 48.929688 34.804688 C 49.082031 35.3125 48.996094 35.875 48.777344 36.359375 C 48.558594 36.847656 48.214844 37.265625 47.84375 37.648438 C 46.558594 38.960938 44.910156 39.890625 43.753906 41.320312 C 43.371094 41.792969 43.054688 42.3125 42.691406 42.804688 C 42.332031 43.292969 41.921875 43.761719 41.410156 44.09375 C 41.089844 44.296875 40.734375 44.441406 40.363281 44.496094 C 39.992188 44.550781 39.601562 44.515625 39.253906 44.367188 C 38.722656 44.140625 38.320312 43.667969 38.109375 43.132812 C 37.894531 42.601562 37.859375 42.007812 37.921875 41.4375 C 38.066406 40.066406 38.761719 38.808594 39.617188 37.726562 "/>
<g clip-path="url(#clip3)" clip-rule="nonzero">
<path style=" stroke:none;fill-rule:nonzero;fill:rgb(81.176471%,79.607843%,75.294118%);fill-opacity:1;" d="M 58.421875 34.558594 C 58.972656 35.402344 59.421875 36.316406 59.746094 37.269531 C 60.621094 39.816406 60.628906 42.652344 59.761719 45.203125 C 58.808594 48 56.832031 50.410156 54.355469 52.019531 C 51.878906 53.636719 48.921875 54.460938 45.964844 54.53125 C 42.714844 54.609375 39.449219 53.777344 36.636719 52.152344 C 36.339844 51.984375 36.054688 51.796875 35.769531 51.609375 C 36.367188 53.332031 37.261719 54.949219 38.425781 56.347656 C 40.777344 59.179688 44.191406 61.113281 47.832031 61.660156 C 51.476562 62.207031 55.3125 61.359375 58.378906 59.316406 C 60.933594 57.613281 62.9375 55.105469 64.03125 52.242188 C 65.125 49.378906 65.304688 46.171875 64.535156 43.203125 C 63.628906 39.714844 61.375 36.628906 58.421875 34.558594 "/>
</g>
<path style=" stroke:none;fill-rule:nonzero;fill:rgb(75.686275%,76.078431%,69.019608%);fill-opacity:1;" d="M 42.871094 38.910156 C 43.417969 38.417969 44.128906 38.09375 44.863281 38.085938 C 45.65625 38.082031 46.445312 38.464844 46.917969 39.09375 C 47.394531 39.726562 47.546875 40.59375 47.300781 41.34375 C 47.058594 42.089844 46.453125 42.683594 45.753906 43.042969 C 45.210938 43.320312 44.59375 43.472656 43.984375 43.417969 C 43.371094 43.363281 42.777344 43.09375 42.375 42.628906 C 41.917969 42.105469 41.746094 41.367188 41.859375 40.683594 C 41.972656 40 42.355469 39.375 42.871094 38.910156 "/>
<path style=" stroke:none;fill-rule:nonzero;fill:rgb(75.686275%,76.078431%,69.019608%);fill-opacity:1;" d="M 59.203125 40.6875 C 59.496094 40.417969 59.898438 40.28125 60.296875 40.28125 C 60.695312 40.273438 61.085938 40.394531 61.441406 40.574219 C 61.996094 40.855469 62.476562 41.296875 62.753906 41.855469 C 63.027344 42.410156 63.085938 43.082031 62.859375 43.660156 C 62.726562 43.992188 62.511719 44.285156 62.230469 44.507812 C 61.953125 44.730469 61.621094 44.878906 61.269531 44.9375 C 60.570312 45.058594 59.820312 44.8125 59.316406 44.3125 C 58.976562 43.972656 58.742188 43.53125 58.640625 43.0625 C 58.535156 42.59375 58.558594 42.101562 58.679688 41.636719 C 58.777344 41.285156 58.933594 40.9375 59.203125 40.6875 "/>
<path style=" stroke:none;fill-rule:nonzero;fill:rgb(75.686275%,76.078431%,69.019608%);fill-opacity:1;" d="M 40.722656 56.257812 C 39.773438 56.003906 38.871094 55.527344 38.203125 54.808594 C 37.96875 54.550781 37.765625 54.265625 37.621094 53.953125 C 37.476562 53.636719 37.398438 53.289062 37.40625 52.941406 C 37.417969 52.679688 37.480469 52.417969 37.605469 52.183594 C 37.726562 51.949219 37.90625 51.746094 38.128906 51.601562 C 38.496094 51.371094 38.953125 51.3125 39.382812 51.378906 C 39.8125 51.449219 40.214844 51.632812 40.589844 51.851562 C 41.378906 52.308594 42.085938 52.925781 42.578125 53.6875 C 42.734375 53.929688 42.867188 54.183594 42.949219 54.457031 C 43.03125 54.730469 43.0625 55.023438 43 55.304688 C 42.929688 55.65625 42.710938 55.980469 42.40625 56.171875 C 42.160156 56.324219 41.867188 56.386719 41.578125 56.386719 C 41.289062 56.390625 41.003906 56.335938 40.722656 56.257812 "/>
<path style=" stroke:none;fill-rule:nonzero;fill:rgb(75.686275%,76.078431%,69.019608%);fill-opacity:1;" d="M 49.640625 53.898438 C 49.898438 53.226562 50.464844 52.695312 51.125 52.417969 C 51.746094 52.15625 52.460938 52.105469 53.113281 52.28125 C 53.765625 52.453125 54.355469 52.855469 54.761719 53.394531 C 55.09375 53.832031 55.304688 54.363281 55.339844 54.910156 C 55.375 55.457031 55.230469 56.015625 54.914062 56.46875 C 54.59375 56.921875 54.105469 57.253906 53.570312 57.414062 C 53.035156 57.578125 52.453125 57.574219 51.914062 57.441406 C 51.425781 57.320312 50.964844 57.097656 50.574219 56.792969 C 50.179688 56.484375 49.851562 56.085938 49.660156 55.625 C 49.4375 55.078125 49.433594 54.449219 49.640625 53.898438 "/>
<path style=" stroke:none;fill-rule:nonzero;fill:rgb(75.686275%,76.078431%,69.019608%);fill-opacity:1;" d="M 52.320312 35.046875 C 52.664062 34.808594 53.09375 34.707031 53.511719 34.753906 C 53.921875 34.804688 54.320312 35.007812 54.59375 35.320312 C 54.9375 35.699219 55.097656 36.234375 55.019531 36.738281 C 54.941406 37.242188 54.632812 37.707031 54.195312 37.964844 C 53.8125 38.195312 53.339844 38.269531 52.90625 38.171875 C 52.46875 38.066406 52.078125 37.789062 51.835938 37.414062 C 51.597656 37.039062 51.507812 36.570312 51.597656 36.132812 C 51.6875 35.695312 51.949219 35.296875 52.320312 35.046875 "/>
<path style=" stroke:none;fill-rule:nonzero;fill:rgb(69.803922%,70.196078%,63.529412%);fill-opacity:1;" d="M 46.335938 38.542969 C 46.46875 39.03125 46.492188 39.546875 46.390625 40.042969 C 46.273438 40.625 45.988281 41.171875 45.578125 41.605469 C 45.171875 42.035156 44.640625 42.351562 44.066406 42.507812 C 43.492188 42.664062 42.875 42.652344 42.304688 42.480469 C 42.28125 42.476562 42.261719 42.464844 42.238281 42.457031 C 42.28125 42.515625 42.324219 42.574219 42.375 42.628906 C 42.777344 43.089844 43.371094 43.363281 43.984375 43.417969 C 44.59375 43.472656 45.210938 43.320312 45.753906 43.042969 C 46.453125 42.683594 47.058594 42.089844 47.300781 41.34375 C 47.546875 40.59375 47.394531 39.722656 46.917969 39.09375 C 46.757812 38.878906 46.558594 38.695312 46.335938 38.542969 "/>
<path style=" stroke:none;fill-rule:nonzero;fill:rgb(69.803922%,70.196078%,63.529412%);fill-opacity:1;" d="M 59.832031 40.351562 C 59.601562 40.417969 59.378906 40.523438 59.203125 40.6875 C 58.933594 40.9375 58.777344 41.285156 58.679688 41.636719 C 58.558594 42.101562 58.535156 42.59375 58.640625 43.0625 C 58.742188 43.53125 58.976562 43.972656 59.316406 44.3125 C 59.820312 44.8125 60.570312 45.058594 61.269531 44.9375 C 61.621094 44.878906 61.953125 44.730469 62.234375 44.507812 C 62.246094 44.496094 62.253906 44.488281 62.265625 44.480469 C 61.777344 44.351562 61.316406 44.144531 60.902344 43.859375 C 60.558594 43.617188 60.246094 43.328125 60.003906 42.980469 C 59.765625 42.636719 59.597656 42.234375 59.542969 41.820312 C 59.488281 41.417969 59.542969 41.003906 59.695312 40.628906 C 59.734375 40.53125 59.777344 40.441406 59.832031 40.351562 "/>
<path style=" stroke:none;fill-rule:nonzero;fill:rgb(69.803922%,70.196078%,63.529412%);fill-opacity:1;" d="M 52.609375 34.886719 C 52.507812 34.929688 52.410156 34.984375 52.320312 35.046875 C 51.953125 35.296875 51.6875 35.695312 51.597656 36.132812 C 51.507812 36.570312 51.597656 37.042969 51.835938 37.414062 C 52.078125 37.789062 52.46875 38.066406 52.90625 38.171875 C 53.257812 38.25 53.636719 38.214844 53.972656 38.074219 C 53.5625 37.957031 53.183594 37.726562 52.902344 37.410156 C 52.613281 37.085938 52.425781 36.679688 52.363281 36.253906 C 52.300781 35.820312 52.367188 35.375 52.554688 34.980469 C 52.570312 34.949219 52.59375 34.921875 52.609375 34.886719 "/>
<path style=" stroke:none;fill-rule:nonzero;fill:rgb(72.941176%,73.333333%,66.27451%);fill-opacity:1;" d="M 53.609375 52.464844 C 52.355469 53.175781 51.003906 53.703125 49.601562 54.042969 C 49.445312 54.558594 49.457031 55.125 49.660156 55.625 C 49.847656 56.085938 50.179688 56.484375 50.574219 56.792969 C 50.964844 57.097656 51.425781 57.320312 51.914062 57.441406 C 52.453125 57.574219 53.035156 57.578125 53.570312 57.417969 C 54.105469 57.253906 54.59375 56.921875 54.914062 56.46875 C 55.230469 56.015625 55.375 55.457031 55.339844 54.90625 C 55.304688 54.363281 55.09375 53.832031 54.761719 53.394531 C 54.464844 52.996094 54.0625 52.675781 53.609375 52.464844 "/>
<path style=" stroke:none;fill-rule:nonzero;fill:rgb(65.490196%,65.882353%,59.215686%);fill-opacity:1;" d="M 54.710938 53.332031 C 54.609375 54.027344 54.320312 54.691406 53.859375 55.226562 C 53.167969 56.019531 52.125 56.496094 51.070312 56.496094 C 50.753906 56.496094 50.4375 56.445312 50.128906 56.363281 C 50.261719 56.519531 50.410156 56.664062 50.574219 56.792969 C 50.964844 57.097656 51.425781 57.320312 51.914062 57.441406 C 52.453125 57.574219 53.035156 57.578125 53.570312 57.414062 C 54.105469 57.253906 54.59375 56.921875 54.914062 56.464844 C 55.230469 56.015625 55.375 55.457031 55.339844 54.910156 C 55.304688 54.363281 55.09375 53.832031 54.761719 53.390625 C 54.746094 53.367188 54.726562 53.351562 54.710938 53.332031 "/>
<path style=" stroke:none;fill-rule:nonzero;fill:rgb(72.941176%,73.333333%,66.27451%);fill-opacity:1;" d="M 37.460938 52.585938 C 37.433594 52.703125 37.414062 52.824219 37.40625 52.941406 C 37.398438 53.289062 37.476562 53.636719 37.621094 53.953125 C 37.765625 54.265625 37.96875 54.550781 38.203125 54.808594 C 38.871094 55.527344 39.773438 56.003906 40.722656 56.257812 C 41.003906 56.335938 41.289062 56.390625 41.578125 56.386719 C 41.867188 56.386719 42.160156 56.324219 42.40625 56.171875 C 42.710938 55.980469 42.929688 55.65625 43 55.304688 C 43.0625 55.023438 43.03125 54.730469 42.949219 54.457031 C 42.9375 54.414062 42.914062 54.371094 42.898438 54.328125 C 41.007812 54.039062 39.164062 53.453125 37.460938 52.585938 "/>
<path style=" stroke:none;fill-rule:nonzero;fill:rgb(69.803922%,70.196078%,63.529412%);fill-opacity:1;" d="M 42.636719 53.785156 C 42.613281 54.140625 42.457031 54.484375 42.199219 54.726562 C 41.929688 54.980469 41.5625 55.117188 41.199219 55.160156 C 40.828125 55.203125 40.453125 55.15625 40.089844 55.074219 C 39.183594 54.878906 38.324219 54.460938 37.59375 53.882812 C 37.605469 53.90625 37.609375 53.929688 37.621094 53.953125 C 37.765625 54.265625 37.96875 54.550781 38.207031 54.808594 C 38.871094 55.527344 39.777344 56.003906 40.722656 56.257812 C 41.003906 56.335938 41.289062 56.390625 41.578125 56.386719 C 41.867188 56.386719 42.160156 56.324219 42.40625 56.171875 C 42.710938 55.980469 42.929688 55.65625 43 55.304688 C 43.0625 55.023438 43.03125 54.730469 42.949219 54.457031 C 42.878906 54.222656 42.765625 54 42.636719 53.785156 "/>
<path style=" stroke:none;fill-rule:nonzero;fill:rgb(13.72549%,12.156863%,12.54902%);fill-opacity:1;" d="M 48.273438 47.359375 C 48.179688 47.359375 48.09375 47.402344 48.039062 47.476562 C 47.980469 47.550781 47.960938 47.644531 47.980469 47.734375 C 48.058594 48.09375 48.230469 48.429688 48.472656 48.707031 C 48.71875 48.980469 49.03125 49.1875 49.378906 49.308594 C 49.996094 49.515625 50.679688 49.433594 51.234375 49.113281 C 51.738281 48.820312 52.121094 48.34375 52.296875 47.789062 C 52.328125 47.710938 52.320312 47.621094 52.285156 47.546875 C 52.25 47.46875 52.179688 47.414062 52.101562 47.386719 C 52.019531 47.359375 51.929688 47.367188 51.859375 47.410156 C 51.785156 47.449219 51.730469 47.519531 51.710938 47.601562 C 51.578125 48.007812 51.292969 48.367188 50.925781 48.578125 C 50.523438 48.8125 50.011719 48.871094 49.578125 48.726562 C 49.332031 48.640625 49.109375 48.488281 48.933594 48.292969 C 48.761719 48.101562 48.640625 47.859375 48.585938 47.605469 C 48.554688 47.457031 48.425781 47.351562 48.273438 47.359375 "/>
<path style=" stroke:none;fill-rule:nonzero;fill:rgb(95.294118%,38.823529%,47.843137%);fill-opacity:1;" d="M 43.78125 49.53125 C 43.777344 49.90625 43.554688 50.265625 43.164062 50.527344 C 42.773438 50.792969 42.246094 50.9375 41.695312 50.9375 C 41.144531 50.933594 40.613281 50.777344 40.226562 50.511719 C 39.839844 50.242188 39.625 49.878906 39.625 49.503906 C 39.628906 48.71875 40.566406 48.089844 41.710938 48.097656 C 42.859375 48.105469 43.78125 48.746094 43.78125 49.53125 "/>
<path style=" stroke:none;fill-rule:nonzero;fill:rgb(95.294118%,38.823529%,47.843137%);fill-opacity:1;" d="M 61.109375 49.640625 C 61.101562 50.421875 60.167969 51.050781 59.023438 51.042969 C 57.878906 51.039062 56.949219 50.394531 56.957031 49.613281 C 56.957031 49.238281 57.179688 48.875 57.570312 48.613281 C 57.960938 48.351562 58.492188 48.203125 59.042969 48.207031 C 59.59375 48.210938 60.121094 48.363281 60.507812 48.632812 C 60.894531 48.902344 61.109375 49.261719 61.109375 49.640625 "/>
<path style=" stroke:none;fill-rule:nonzero;fill:rgb(13.72549%,12.156863%,12.54902%);fill-opacity:1;" d="M 45.085938 45.574219 C 45.085938 46.011719 44.90625 46.433594 44.59375 46.742188 C 44.28125 47.046875 43.859375 47.21875 43.421875 47.21875 C 42.980469 47.214844 42.5625 47.039062 42.253906 46.726562 C 41.945312 46.414062 41.773438 45.992188 41.777344 45.554688 C 41.785156 44.640625 42.53125 43.90625 43.441406 43.914062 C 43.878906 43.914062 44.300781 44.09375 44.609375 44.402344 C 44.917969 44.714844 45.089844 45.136719 45.085938 45.574219 "/>
<path style=" stroke:none;fill-rule:nonzero;fill:rgb(100%,100%,100%);fill-opacity:1;" d="M 43.441406 44.839844 C 43.441406 44.976562 43.382812 45.105469 43.289062 45.203125 C 43.191406 45.300781 43.058594 45.351562 42.921875 45.351562 C 42.785156 45.351562 42.65625 45.296875 42.558594 45.199219 C 42.464844 45.101562 42.410156 44.96875 42.414062 44.832031 C 42.414062 44.550781 42.644531 44.324219 42.929688 44.324219 C 43.210938 44.324219 43.445312 44.554688 43.441406 44.839844 "/>
<path style=" stroke:none;fill-rule:nonzero;fill:rgb(13.72549%,12.156863%,12.54902%);fill-opacity:1;" d="M 55.480469 46.875 C 55.261719 46.871094 55.078125 46.703125 55.058594 46.480469 C 55.023438 46.125 55.089844 45.761719 55.257812 45.4375 C 55.421875 45.117188 55.675781 44.851562 55.988281 44.667969 C 56.492188 44.375 57.113281 44.335938 57.652344 44.5625 C 58.027344 44.714844 58.34375 44.988281 58.550781 45.339844 C 58.757812 45.691406 58.847656 46.097656 58.800781 46.503906 C 58.777344 46.738281 58.5625 46.910156 58.324219 46.882812 C 58.089844 46.859375 57.917969 46.644531 57.945312 46.410156 C 57.96875 46.195312 57.921875 45.964844 57.808594 45.777344 C 57.703125 45.59375 57.523438 45.4375 57.324219 45.351562 C 57.042969 45.238281 56.679688 45.261719 56.417969 45.414062 C 56.253906 45.511719 56.113281 45.660156 56.023438 45.832031 C 55.933594 46 55.894531 46.203125 55.914062 46.398438 C 55.929688 46.519531 55.890625 46.640625 55.804688 46.734375 C 55.722656 46.828125 55.605469 46.878906 55.480469 46.875 "/>
<path style=" stroke:none;fill-rule:nonzero;fill:rgb(72.941176%,73.333333%,66.27451%);fill-opacity:1;" d="M 60.367188 40.28125 C 60.484375 41.777344 60.324219 43.289062 59.902344 44.722656 C 60.320312 44.933594 60.808594 45.019531 61.269531 44.9375 C 61.621094 44.878906 61.953125 44.730469 62.230469 44.507812 C 62.507812 44.285156 62.726562 43.992188 62.859375 43.660156 C 63.085938 43.082031 63.027344 42.410156 62.753906 41.855469 C 62.476562 41.296875 61.996094 40.855469 61.441406 40.574219 C 61.109375 40.40625 60.742188 40.292969 60.367188 40.28125 "/>
<path style=" stroke:none;fill-rule:nonzero;fill:rgb(65.490196%,65.882353%,59.215686%);fill-opacity:1;" d="M 60.226562 43.257812 C 60.144531 43.753906 60.042969 44.242188 59.902344 44.722656 C 59.902344 44.726562 59.902344 44.726562 59.902344 44.726562 C 60.109375 44.828125 60.324219 44.898438 60.546875 44.933594 C 60.566406 44.9375 60.585938 44.941406 60.605469 44.945312 C 60.691406 44.957031 60.777344 44.960938 60.863281 44.964844 C 60.894531 44.964844 60.925781 44.964844 60.953125 44.964844 C 61.058594 44.964844 61.164062 44.957031 61.269531 44.9375 C 61.53125 44.890625 61.785156 44.796875 62.015625 44.660156 C 62.089844 44.613281 62.164062 44.5625 62.230469 44.507812 C 62.242188 44.5 62.253906 44.488281 62.265625 44.480469 C 61.777344 44.351562 61.316406 44.144531 60.902344 43.859375 C 60.65625 43.683594 60.425781 43.484375 60.226562 43.257812 "/>
<path style=" stroke:none;fill-rule:nonzero;fill:rgb(65.490196%,65.882353%,59.215686%);fill-opacity:1;" d="M 37.59375 53.882812 C 37.605469 53.90625 37.609375 53.929688 37.621094 53.953125 C 37.765625 54.265625 37.96875 54.550781 38.203125 54.808594 C 38.871094 55.527344 39.773438 56.003906 40.722656 56.257812 C 41.003906 56.335938 41.289062 56.390625 41.578125 56.386719 C 41.867188 56.386719 42.160156 56.324219 42.40625 56.171875 C 42.710938 55.980469 42.929688 55.65625 43 55.300781 C 43.0625 55.023438 43.03125 54.730469 42.949219 54.457031 C 42.9375 54.410156 42.914062 54.371094 42.898438 54.328125 C 42.769531 54.304688 42.644531 54.289062 42.519531 54.265625 C 42.441406 54.441406 42.335938 54.597656 42.199219 54.726562 C 41.929688 54.980469 41.566406 55.117188 41.199219 55.160156 C 40.828125 55.203125 40.453125 55.15625 40.089844 55.074219 C 39.183594 54.878906 38.324219 54.460938 37.59375 53.882812 "/>
<path style=" stroke:none;fill-rule:nonzero;fill:rgb(88.627451%,88.627451%,85.098039%);fill-opacity:1;" d="M 44.863281 38.085938 C 44.128906 38.09375 43.417969 38.417969 42.871094 38.910156 C 42.355469 39.375 41.972656 40 41.859375 40.683594 C 41.746094 41.367188 41.917969 42.109375 42.375 42.632812 C 42.453125 42.722656 42.542969 42.796875 42.636719 42.875 C 42.652344 42.847656 42.671875 42.828125 42.691406 42.804688 C 43.054688 42.3125 43.371094 41.792969 43.753906 41.320312 C 44.5625 40.324219 45.605469 39.566406 46.601562 38.757812 C 46.128906 38.328125 45.5 38.082031 44.863281 38.085938 "/>
<path style=" stroke:none;fill-rule:nonzero;fill:rgb(69.803922%,70.196078%,63.529412%);fill-opacity:1;" d="M 46.335938 38.542969 C 46.46875 39.03125 46.492188 39.546875 46.390625 40.042969 C 46.273438 40.625 45.988281 41.171875 45.578125 41.605469 C 45.171875 42.035156 44.640625 42.351562 44.066406 42.507812 C 43.492188 42.664062 42.875 42.652344 42.304688 42.480469 C 42.28125 42.476562 42.261719 42.464844 42.238281 42.457031 C 42.28125 42.515625 42.324219 42.574219 42.375 42.628906 C 42.777344 43.089844 43.371094 43.363281 43.984375 43.417969 C 44.59375 43.472656 45.210938 43.320312 45.753906 43.042969 C 46.453125 42.683594 47.058594 42.089844 47.300781 41.34375 C 47.546875 40.59375 47.394531 39.722656 46.917969 39.09375 C 46.757812 38.878906 46.558594 38.695312 46.335938 38.542969 "/>
<path style=" stroke:none;fill-rule:nonzero;fill:rgb(77.254902%,77.254902%,71.764706%);fill-opacity:1;" d="M 42.238281 42.457031 C 42.28125 42.515625 42.324219 42.574219 42.375 42.628906 C 42.453125 42.722656 42.546875 42.796875 42.636719 42.875 C 42.652344 42.847656 42.671875 42.828125 42.691406 42.804688 C 42.742188 42.734375 42.792969 42.660156 42.839844 42.585938 C 42.660156 42.566406 42.480469 42.53125 42.308594 42.480469 C 42.28125 42.476562 42.261719 42.464844 42.238281 42.457031 Z M 46.335938 38.542969 C 46.367188 38.664062 46.394531 38.785156 46.414062 38.90625 C 46.476562 38.855469 46.539062 38.808594 46.601562 38.757812 C 46.515625 38.679688 46.429688 38.609375 46.335938 38.542969 "/>
<g clip-path="url(#clip4)" clip-rule="nonzero">
<path style=" stroke:none;fill-rule:nonzero;fill:rgb(10.980392%,40.392157%,96.470588%);fill-opacity:1;" d="M 81.96875 117.207031 C 73.523438 114.289062 64.136719 115.476562 56.679688 120.453125 L 50.710938 124.433594 L 50.710938 79.625 L 55.792969 75.867188 C 61.820312 71.40625 69.246094 69.660156 76.53125 70.902344 C 76.574219 70.914062 76.613281 70.921875 76.65625 70.925781 C 77.542969 71.082031 78.425781 71.28125 79.304688 71.523438 L 81.96875 72.265625 Z M 27.355469 115.636719 C 24.207031 115.636719 21.042969 116.15625 18 117.207031 L 18 72.265625 L 20.664062 71.523438 C 21.542969 71.28125 22.429688 71.082031 23.316406 70.925781 C 23.351562 70.921875 23.390625 70.917969 23.429688 70.90625 C 30.71875 69.660156 38.144531 71.402344 44.175781 75.867188 L 49.257812 79.625 L 49.257812 124.433594 L 43.292969 120.453125 C 38.519531 117.273438 32.957031 115.636719 27.355469 115.636719 Z M 23.976562 64.519531 C 27.726562 65.023438 43.59375 67.691406 48.390625 77.175781 L 45.042969 74.699219 C 38.90625 70.15625 31.398438 68.289062 23.976562 69.347656 Z M 31.613281 58.90625 C 34.921875 60.144531 45.960938 64.945312 48.660156 74.761719 C 44.816406 69.144531 37.429688 66.128906 31.613281 64.558594 Z M 68.355469 58.90625 L 68.355469 64.558594 C 62.539062 66.128906 55.152344 69.144531 51.308594 74.761719 C 54.007812 64.945312 65.046875 60.144531 68.355469 58.90625 Z M 75.992188 69.347656 C 68.566406 68.289062 61.0625 70.15625 54.925781 74.699219 L 51.578125 77.175781 C 56.375 67.691406 72.242188 65.023438 75.992188 64.519531 Z M 82.890625 71.015625 L 79.695312 70.121094 C 78.945312 69.917969 78.199219 69.738281 77.445312 69.59375 L 77.445312 63.695312 C 77.445312 63.492188 77.359375 63.296875 77.207031 63.160156 C 77.054688 63.019531 76.851562 62.957031 76.648438 62.976562 C 76.328125 63.003906 73.523438 63.292969 69.808594 64.1875 L 69.808594 57.878906 C 69.808594 57.648438 69.699219 57.433594 69.515625 57.296875 C 69.332031 57.160156 69.089844 57.117188 68.871094 57.1875 C 68.695312 57.238281 53.507812 62.011719 49.984375 74.109375 C 46.460938 62.011719 31.273438 57.238281 31.101562 57.1875 C 30.878906 57.117188 30.640625 57.160156 30.457031 57.296875 C 30.269531 57.433594 30.160156 57.648438 30.160156 57.878906 L 30.160156 64.1875 C 26.445312 63.292969 23.644531 63.003906 23.320312 62.976562 C 23.113281 62.953125 22.910156 63.019531 22.761719 63.160156 C 22.609375 63.296875 22.523438 63.492188 22.523438 63.695312 L 22.523438 69.59375 C 21.773438 69.738281 21.019531 69.917969 20.273438 70.121094 L 17.078125 71.015625 C 16.765625 71.101562 16.546875 71.390625 16.546875 71.714844 L 16.546875 118.246094 C 16.546875 118.484375 16.664062 118.707031 16.863281 118.84375 C 17.058594 118.980469 17.308594 119.011719 17.53125 118.921875 L 17.671875 118.871094 C 25.886719 115.738281 35.164062 116.78125 42.484375 121.660156 L 49.582031 126.398438 C 49.589844 126.402344 49.601562 126.40625 49.609375 126.410156 C 49.621094 126.417969 49.632812 126.425781 49.640625 126.433594 C 49.648438 126.433594 49.65625 126.4375 49.660156 126.441406 C 49.671875 126.445312 49.683594 126.453125 49.695312 126.457031 C 49.714844 126.464844 49.738281 126.472656 49.757812 126.476562 C 49.765625 126.484375 49.777344 126.488281 49.792969 126.488281 C 49.8125 126.496094 49.835938 126.5 49.855469 126.503906 C 49.867188 126.503906 49.878906 126.507812 49.886719 126.511719 C 49.917969 126.515625 49.953125 126.515625 49.984375 126.515625 C 50.015625 126.515625 50.046875 126.515625 50.082031 126.511719 C 50.09375 126.507812 50.101562 126.503906 50.109375 126.503906 C 50.136719 126.5 50.15625 126.496094 50.179688 126.488281 C 50.191406 126.488281 50.199219 126.484375 50.214844 126.476562 C 50.234375 126.472656 50.253906 126.464844 50.273438 126.457031 C 50.285156 126.453125 50.296875 126.445312 50.308594 126.441406 C 50.316406 126.4375 50.320312 126.433594 50.328125 126.433594 C 50.339844 126.425781 50.351562 126.417969 50.359375 126.410156 C 50.367188 126.40625 50.378906 126.402344 50.386719 126.398438 L 57.488281 121.660156 C 64.804688 116.78125 74.082031 115.738281 82.300781 118.871094 L 82.433594 118.921875 C 82.65625 119.011719 82.910156 118.980469 83.109375 118.84375 C 83.304688 118.707031 83.421875 118.484375 83.421875 118.246094 L 83.421875 71.714844 C 83.421875 71.390625 83.207031 71.101562 82.890625 71.015625 "/>
</g>
<g clip-path="url(#clip5)" clip-rule="nonzero">
<path style=" stroke:none;fill-rule:nonzero;fill:rgb(10.980392%,40.392157%,96.470588%);fill-opacity:1;" d="M 61.945312 29.941406 L 56.859375 31.738281 L 62.0625 30.457031 L 63.898438 39.785156 C 56.449219 43.4375 43.3125 43.109375 36.199219 39.785156 L 38.089844 30.410156 L 42.859375 31.527344 L 38.179688 29.933594 L 36.84375 29.472656 L 33.882812 28.464844 L 33.882812 31.308594 C 34.132812 31.429688 34.300781 31.679688 34.300781 31.96875 C 34.300781 32.203125 34.191406 32.410156 34.023438 32.542969 C 34.035156 32.550781 34.046875 32.5625 34.050781 32.574219 C 34.238281 32.71875 34.351562 32.9375 34.433594 33.167969 C 35.078125 34.546875 34.773438 36.648438 34.417969 37.300781 C 34.40625 37.335938 34.390625 37.363281 34.371094 37.390625 C 34.363281 37.398438 34.351562 37.40625 34.347656 37.414062 C 34.347656 37.414062 34.347656 37.414062 34.34375 37.421875 C 34.328125 37.441406 34.308594 37.460938 34.289062 37.472656 L 34.195312 37.472656 C 34.164062 37.480469 34.132812 37.472656 34.097656 37.472656 L 34.074219 37.472656 C 34.085938 37.378906 34.09375 37.285156 34.097656 37.1875 C 34.109375 37.03125 34.113281 36.878906 34.113281 36.722656 C 34.113281 36.566406 34.109375 36.414062 34.097656 36.261719 C 34.089844 36.113281 34.078125 35.957031 34.0625 35.804688 C 34.0625 35.957031 34.058594 36.113281 34.046875 36.261719 C 34.035156 36.414062 34.023438 36.566406 34.007812 36.71875 C 33.992188 36.867188 33.972656 37.019531 33.945312 37.167969 C 33.925781 37.257812 33.90625 37.355469 33.882812 37.445312 C 33.882812 37.453125 33.878906 37.460938 33.878906 37.46875 L 33.175781 37.460938 C 33.175781 37.460938 33.175781 37.453125 33.175781 37.445312 C 33.15625 37.390625 33.136719 37.328125 33.121094 37.265625 C 33.078125 37.097656 33.039062 36.921875 33.023438 36.75 C 33.007812 36.921875 33.011719 37.101562 33.023438 37.28125 C 33.03125 37.339844 33.035156 37.394531 33.039062 37.453125 L 33.054688 37.453125 C 33.050781 37.453125 33.046875 37.453125 33.039062 37.453125 C 32.9375 37.460938 32.804688 37.472656 32.761719 37.445312 C 32.707031 37.410156 32.703125 37.316406 32.691406 37.238281 C 32.046875 35.238281 32.328125 33.519531 33.054688 32.753906 C 33.074219 32.738281 33.089844 32.71875 33.101562 32.703125 C 33.117188 32.6875 33.132812 32.675781 33.148438 32.660156 C 33.160156 32.648438 33.171875 32.644531 33.179688 32.632812 C 33.1875 32.628906 33.191406 32.628906 33.191406 32.621094 L 33.199219 32.617188 C 32.964844 32.492188 32.808594 32.25 32.808594 31.96875 C 32.808594 31.644531 33.019531 31.363281 33.316406 31.273438 L 33.316406 28.28125 L 30.128906 27.195312 L 30.128906 26.71875 L 50.105469 19.835938 L 69.921875 26.773438 L 69.921875 27.195312 L 61.957031 29.941406 L 61.945312 29.941406 "/>
</g>
</g>
</svg>
