<?xml version="1.0" encoding="utf-8"?>
<svg fill="#000000" viewBox="0 0 20 20" width="20px" height="20px" xmlns="http://www.w3.org/2000/svg">
  <path d="M 18.661 1.249 C 18.353 0.963 17.871 0.922 17.372 1.142 L 17.372 1.142 C 16.847 1.373 2.525 8.125 1.944 8.402 C 1.837 8.443 0.911 8.823 1.007 9.669 C 1.091 10.43 1.836 10.747 1.927 10.784 L 5.567 12.154 C 5.809 13.038 6.699 16.297 6.897 16.995 C 7.02 17.43 7.22 18 7.57 18.116 C 7.878 18.247 8.184 18.129 8.382 17.957 L 10.608 15.687 L 14.202 18.768 L 14.287 18.824 C 14.532 18.944 14.766 19.002 14.988 19.002 C 15.161 19.002 15.326 18.967 15.485 18.896 C 16.023 18.654 16.238 18.089 16.26 18.026 L 18.944 2.69 C 19.108 1.872 18.88 1.455 18.661 1.249 Z M 8.778 12.701 L 7.55 16.301 L 6.322 11.801 L 15.738 4.151 L 8.778 12.701 Z"/>
</svg>