<svg xmlns="http://www.w3.org/2000/svg" width="192" viewBox="0 0 192 192" height="192" version="1.0"><defs><clipPath id="a"><path d="M 8.902344 8.902344 L 183.238281 8.902344 L 183.238281 183.238281 L 8.902344 183.238281 Z M 8.902344 8.902344"/></clipPath><clipPath id="b"><path d="M 31.648438 109.664062 L 160.289062 109.664062 L 160.289062 153.824219 L 31.648438 153.824219 Z M 31.648438 109.664062"/></clipPath><clipPath id="c"><path d="M 57.851562 38.078125 L 134.269531 38.078125 L 134.269531 82 L 57.851562 82 Z M 57.851562 38.078125"/></clipPath></defs><g clip-path="url(#a)"><path fill="#1C67F6" d="M 183.238281 96.070312 C 183.238281 97.496094 183.203125 98.921875 183.132812 100.347656 C 183.0625 101.773438 182.957031 103.195312 182.820312 104.613281 C 182.679688 106.035156 182.503906 107.449219 182.292969 108.859375 C 182.085938 110.273438 181.839844 111.675781 181.5625 113.074219 C 181.285156 114.476562 180.972656 115.867188 180.625 117.25 C 180.28125 118.632812 179.898438 120.007812 179.484375 121.375 C 179.070312 122.738281 178.625 124.09375 178.144531 125.4375 C 177.664062 126.78125 177.148438 128.109375 176.601562 129.429688 C 176.058594 130.746094 175.480469 132.050781 174.871094 133.339844 C 174.257812 134.628906 173.617188 135.902344 172.945312 137.160156 C 172.273438 138.417969 171.570312 139.660156 170.835938 140.882812 C 170.101562 142.105469 169.339844 143.3125 168.546875 144.5 C 167.753906 145.683594 166.933594 146.851562 166.085938 147.996094 C 165.234375 149.140625 164.355469 150.265625 163.453125 151.367188 C 162.546875 152.472656 161.617188 153.550781 160.65625 154.609375 C 159.699219 155.664062 158.714844 156.699219 157.707031 157.707031 C 156.699219 158.714844 155.664062 159.699219 154.609375 160.65625 C 153.550781 161.617188 152.472656 162.546875 151.367188 163.453125 C 150.265625 164.355469 149.140625 165.234375 147.996094 166.085938 C 146.851562 166.933594 145.683594 167.753906 144.5 168.546875 C 143.3125 169.339844 142.105469 170.101562 140.882812 170.835938 C 139.660156 171.570312 138.417969 172.273438 137.160156 172.945312 C 135.902344 173.617188 134.628906 174.257812 133.339844 174.871094 C 132.050781 175.480469 130.746094 176.058594 129.429688 176.601562 C 128.109375 177.148438 126.78125 177.664062 125.4375 178.144531 C 124.09375 178.625 122.738281 179.070312 121.375 179.484375 C 120.007812 179.898438 118.632812 180.28125 117.25 180.625 C 115.867188 180.972656 114.476562 181.285156 113.074219 181.5625 C 111.675781 181.839844 110.273438 182.085938 108.859375 182.292969 C 107.449219 182.503906 106.035156 182.679688 104.613281 182.820312 C 103.195312 182.957031 101.773438 183.0625 100.347656 183.132812 C 98.921875 183.203125 97.496094 183.238281 96.070312 183.238281 C 94.644531 183.238281 93.21875 183.203125 91.792969 183.132812 C 90.367188 183.0625 88.945312 182.957031 87.527344 182.820312 C 86.105469 182.679688 84.691406 182.503906 83.28125 182.292969 C 81.867188 182.085938 80.464844 181.839844 79.066406 181.5625 C 77.664062 181.285156 76.273438 180.972656 74.890625 180.625 C 73.507812 180.28125 72.132812 179.898438 70.765625 179.484375 C 69.402344 179.070312 68.046875 178.625 66.703125 178.144531 C 65.359375 177.664062 64.03125 177.148438 62.710938 176.601562 C 61.394531 176.058594 60.089844 175.480469 58.800781 174.871094 C 57.511719 174.257812 56.238281 173.617188 54.980469 172.945312 C 53.722656 172.273438 52.480469 171.570312 51.257812 170.835938 C 50.035156 170.101562 48.828125 169.339844 47.640625 168.546875 C 46.457031 167.753906 45.289062 166.933594 44.144531 166.085938 C 43 165.234375 41.875 164.355469 40.773438 163.453125 C 39.667969 162.546875 38.589844 161.617188 37.53125 160.65625 C 36.476562 159.699219 35.441406 158.714844 34.433594 157.707031 C 33.425781 156.699219 32.441406 155.664062 31.484375 154.609375 C 30.523438 153.550781 29.59375 152.472656 28.6875 151.367188 C 27.785156 150.265625 26.90625 149.140625 26.054688 147.996094 C 25.207031 146.851562 24.386719 145.683594 23.59375 144.5 C 22.800781 143.3125 22.039062 142.105469 21.304688 140.882812 C 20.570312 139.660156 19.867188 138.417969 19.195312 137.160156 C 18.523438 135.902344 17.882812 134.628906 17.269531 133.339844 C 16.660156 132.050781 16.082031 130.746094 15.539062 129.429688 C 14.992188 128.109375 14.476562 126.78125 13.996094 125.4375 C 13.515625 124.09375 13.070312 122.738281 12.65625 121.375 C 12.242188 120.007812 11.859375 118.632812 11.515625 117.25 C 11.167969 115.867188 10.855469 114.476562 10.578125 113.074219 C 10.300781 111.675781 10.054688 110.273438 9.847656 108.859375 C 9.636719 107.449219 9.460938 106.035156 9.320312 104.613281 C 9.183594 103.195312 9.078125 101.773438 9.007812 100.347656 C 8.9375 98.921875 8.902344 97.496094 8.902344 96.070312 C 8.902344 94.644531 8.9375 93.21875 9.007812 91.792969 C 9.078125 90.367188 9.183594 88.945312 9.320312 87.527344 C 9.460938 86.105469 9.636719 84.691406 9.847656 83.28125 C 10.054688 81.867188 10.300781 80.464844 10.578125 79.066406 C 10.855469 77.664062 11.167969 76.273438 11.515625 74.890625 C 11.859375 73.507812 12.242188 72.132812 12.65625 70.765625 C 13.070312 69.402344 13.515625 68.046875 13.996094 66.703125 C 14.476562 65.359375 14.992188 64.03125 15.539062 62.710938 C 16.082031 61.394531 16.660156 60.089844 17.269531 58.800781 C 17.882812 57.511719 18.523438 56.238281 19.195312 54.980469 C 19.867188 53.722656 20.570312 52.480469 21.304688 51.257812 C 22.039062 50.035156 22.800781 48.828125 23.59375 47.640625 C 24.386719 46.457031 25.207031 45.289062 26.054688 44.144531 C 26.90625 43 27.785156 41.875 28.6875 40.773438 C 29.59375 39.667969 30.523438 38.589844 31.484375 37.53125 C 32.441406 36.476562 33.425781 35.441406 34.433594 34.433594 C 35.441406 33.425781 36.476562 32.441406 37.53125 31.484375 C 38.589844 30.523438 39.667969 29.59375 40.773438 28.6875 C 41.875 27.785156 43 26.90625 44.144531 26.054688 C 45.289062 25.207031 46.457031 24.386719 47.640625 23.59375 C 48.828125 22.800781 50.035156 22.039062 51.257812 21.304688 C 52.480469 20.570312 53.722656 19.867188 54.980469 19.195312 C 56.238281 18.523438 57.511719 17.882812 58.800781 17.269531 C 60.089844 16.660156 61.394531 16.082031 62.710938 15.539062 C 64.03125 14.992188 65.359375 14.476562 66.703125 13.996094 C 68.046875 13.515625 69.402344 13.070312 70.765625 12.65625 C 72.132812 12.242188 73.507812 11.859375 74.890625 11.515625 C 76.273438 11.167969 77.664062 10.855469 79.066406 10.578125 C 80.464844 10.300781 81.867188 10.054688 83.28125 9.847656 C 84.691406 9.636719 86.105469 9.460938 87.527344 9.320312 C 88.945312 9.183594 90.367188 9.078125 91.792969 9.007812 C 93.21875 8.9375 94.644531 8.902344 96.070312 8.902344 C 97.496094 8.902344 98.921875 8.9375 100.347656 9.007812 C 101.773438 9.078125 103.195312 9.183594 104.613281 9.320312 C 106.035156 9.460938 107.449219 9.636719 108.859375 9.847656 C 110.273438 10.054688 111.675781 10.300781 113.074219 10.578125 C 114.476562 10.855469 115.867188 11.167969 117.25 11.515625 C 118.632812 11.859375 120.007812 12.242188 121.375 12.65625 C 122.738281 13.070312 124.09375 13.515625 125.4375 13.996094 C 126.78125 14.476562 128.109375 14.992188 129.429688 15.539062 C 130.746094 16.082031 132.050781 16.660156 133.339844 17.269531 C 134.628906 17.882812 135.902344 18.523438 137.160156 19.195312 C 138.417969 19.867188 139.660156 20.570312 140.882812 21.304688 C 142.105469 22.039062 143.3125 22.800781 144.5 23.59375 C 145.683594 24.386719 146.851562 25.207031 147.996094 26.054688 C 149.140625 26.90625 150.265625 27.785156 151.367188 28.6875 C 152.472656 29.59375 153.550781 30.523438 154.609375 31.484375 C 155.664062 32.441406 156.699219 33.425781 157.707031 34.433594 C 158.714844 35.441406 159.699219 36.476562 160.65625 37.53125 C 161.617188 38.589844 162.546875 39.667969 163.453125 40.773438 C 164.355469 41.875 165.234375 43 166.085938 44.144531 C 166.933594 45.289062 167.753906 46.457031 168.546875 47.640625 C 169.339844 48.828125 170.101562 50.035156 170.835938 51.257812 C 171.570312 52.480469 172.273438 53.722656 172.945312 54.980469 C 173.617188 56.238281 174.257812 57.511719 174.871094 58.800781 C 175.480469 60.089844 176.058594 61.394531 176.601562 62.710938 C 177.148438 64.03125 177.664062 65.359375 178.144531 66.703125 C 178.625 68.046875 179.070312 69.402344 179.484375 70.765625 C 179.898438 72.132812 180.28125 73.507812 180.625 74.890625 C 180.972656 76.273438 181.285156 77.664062 181.5625 79.066406 C 181.839844 80.464844 182.085938 81.867188 182.292969 83.28125 C 182.503906 84.691406 182.679688 86.105469 182.820312 87.527344 C 182.957031 88.945312 183.0625 90.367188 183.132812 91.792969 C 183.203125 93.21875 183.238281 94.644531 183.238281 96.070312 Z M 183.238281 96.070312"/></g><path fill="#1C67F6" d="M 178.183594 96.070312 C 178.183594 97.414062 178.152344 98.757812 178.085938 100.097656 C 178.019531 101.441406 177.921875 102.78125 177.789062 104.117188 C 177.65625 105.457031 177.492188 106.789062 177.296875 108.117188 C 177.097656 109.449219 176.871094 110.773438 176.605469 112.089844 C 176.34375 113.40625 176.050781 114.71875 175.722656 116.023438 C 175.398438 117.328125 175.039062 118.621094 174.648438 119.90625 C 174.257812 121.191406 173.835938 122.46875 173.386719 123.734375 C 172.933594 125 172.449219 126.253906 171.933594 127.496094 C 171.421875 128.734375 170.875 129.964844 170.300781 131.179688 C 169.726562 132.394531 169.121094 133.59375 168.488281 134.777344 C 167.855469 135.964844 167.195312 137.132812 166.503906 138.285156 C 165.8125 139.4375 165.09375 140.574219 164.347656 141.691406 C 163.601562 142.808594 162.824219 143.90625 162.027344 144.984375 C 161.226562 146.066406 160.398438 147.125 159.546875 148.164062 C 158.695312 149.203125 157.816406 150.21875 156.914062 151.214844 C 156.011719 152.210938 155.085938 153.183594 154.132812 154.132812 C 153.183594 155.085938 152.210938 156.011719 151.214844 156.914062 C 150.21875 157.816406 149.203125 158.691406 148.164062 159.546875 C 147.125 160.398438 146.066406 161.226562 144.984375 162.027344 C 143.90625 162.824219 142.808594 163.601562 141.691406 164.347656 C 140.574219 165.09375 139.4375 165.8125 138.285156 166.503906 C 137.132812 167.195312 135.964844 167.855469 134.777344 168.488281 C 133.59375 169.121094 132.394531 169.726562 131.179688 170.300781 C 129.964844 170.875 128.734375 171.421875 127.496094 171.933594 C 126.253906 172.449219 125 172.933594 123.734375 173.386719 C 122.46875 173.835938 121.191406 174.257812 119.90625 174.648438 C 118.621094 175.039062 117.328125 175.398438 116.023438 175.722656 C 114.71875 176.050781 113.40625 176.34375 112.089844 176.605469 C 110.773438 176.871094 109.449219 177.097656 108.117188 177.296875 C 106.789062 177.492188 105.457031 177.65625 104.117188 177.789062 C 102.78125 177.921875 101.441406 178.019531 100.097656 178.085938 C 98.757812 178.152344 97.414062 178.183594 96.070312 178.183594 C 94.726562 178.183594 93.382812 178.152344 92.042969 178.085938 C 90.699219 178.019531 89.359375 177.921875 88.023438 177.789062 C 86.683594 177.65625 85.351562 177.492188 84.023438 177.296875 C 82.691406 177.097656 81.367188 176.871094 80.050781 176.605469 C 78.734375 176.34375 77.421875 176.050781 76.117188 175.722656 C 74.816406 175.398438 73.519531 175.039062 72.234375 174.648438 C 70.949219 174.257812 69.671875 173.835938 68.40625 173.386719 C 67.140625 172.933594 65.886719 172.449219 64.644531 171.933594 C 63.40625 171.421875 62.175781 170.875 60.960938 170.300781 C 59.746094 169.726562 58.546875 169.121094 57.363281 168.488281 C 56.175781 167.855469 55.007812 167.195312 53.855469 166.503906 C 52.703125 165.8125 51.566406 165.09375 50.449219 164.347656 C 49.332031 163.601562 48.234375 162.824219 47.15625 162.027344 C 46.074219 161.226562 45.015625 160.398438 43.976562 159.546875 C 42.9375 158.691406 41.921875 157.816406 40.925781 156.914062 C 39.929688 156.011719 38.957031 155.085938 38.007812 154.132812 C 37.054688 153.183594 36.128906 152.210938 35.226562 151.214844 C 34.324219 150.21875 33.449219 149.203125 32.59375 148.164062 C 31.742188 147.125 30.914062 146.066406 30.113281 144.984375 C 29.316406 143.90625 28.539062 142.808594 27.792969 141.691406 C 27.046875 140.574219 26.328125 139.4375 25.636719 138.285156 C 24.945312 137.132812 24.285156 135.964844 23.652344 134.777344 C 23.019531 133.59375 22.414062 132.394531 21.839844 131.179688 C 21.265625 129.964844 20.71875 128.734375 20.207031 127.496094 C 19.691406 126.253906 19.207031 125 18.753906 123.734375 C 18.304688 122.46875 17.882812 121.191406 17.492188 119.90625 C 17.101562 118.621094 16.742188 117.328125 16.417969 116.023438 C 16.089844 114.71875 15.796875 113.40625 15.535156 112.089844 C 15.269531 110.773438 15.042969 109.449219 14.84375 108.117188 C 14.648438 106.789062 14.484375 105.457031 14.351562 104.117188 C 14.21875 102.78125 14.121094 101.441406 14.054688 100.097656 C 13.988281 98.757812 13.957031 97.414062 13.957031 96.070312 C 13.957031 94.726562 13.988281 93.382812 14.054688 92.042969 C 14.121094 90.699219 14.21875 89.359375 14.351562 88.023438 C 14.484375 86.683594 14.648438 85.351562 14.84375 84.023438 C 15.042969 82.691406 15.269531 81.367188 15.535156 80.050781 C 15.796875 78.734375 16.089844 77.421875 16.417969 76.117188 C 16.742188 74.816406 17.101562 73.519531 17.492188 72.234375 C 17.882812 70.949219 18.304688 69.671875 18.753906 68.40625 C 19.207031 67.140625 19.691406 65.886719 20.207031 64.644531 C 20.71875 63.40625 21.265625 62.175781 21.839844 60.960938 C 22.414062 59.746094 23.019531 58.546875 23.652344 57.363281 C 24.285156 56.175781 24.945312 55.007812 25.636719 53.855469 C 26.328125 52.703125 27.046875 51.566406 27.792969 50.449219 C 28.539062 49.332031 29.316406 48.234375 30.113281 47.15625 C 30.914062 46.074219 31.742188 45.015625 32.59375 43.976562 C 33.449219 42.9375 34.324219 41.921875 35.226562 40.925781 C 36.128906 39.929688 37.054688 38.957031 38.007812 38.007812 C 38.957031 37.054688 39.929688 36.128906 40.925781 35.226562 C 41.921875 34.324219 42.9375 33.449219 43.976562 32.59375 C 45.015625 31.742188 46.074219 30.914062 47.15625 30.113281 C 48.234375 29.316406 49.332031 28.539062 50.449219 27.792969 C 51.566406 27.046875 52.703125 26.328125 53.855469 25.636719 C 55.007812 24.945312 56.175781 24.285156 57.363281 23.652344 C 58.546875 23.019531 59.746094 22.414062 60.960938 21.839844 C 62.175781 21.265625 63.40625 20.71875 64.644531 20.207031 C 65.886719 19.691406 67.140625 19.207031 68.40625 18.753906 C 69.671875 18.304688 70.949219 17.882812 72.234375 17.492188 C 73.519531 17.101562 74.816406 16.742188 76.117188 16.417969 C 77.421875 16.089844 78.734375 15.796875 80.050781 15.535156 C 81.367188 15.269531 82.691406 15.042969 84.023438 14.84375 C 85.351562 14.648438 86.683594 14.484375 88.023438 14.351562 C 89.359375 14.21875 90.699219 14.121094 92.042969 14.054688 C 93.382812 13.988281 94.726562 13.957031 96.070312 13.957031 C 97.414062 13.957031 98.757812 13.988281 100.097656 14.054688 C 101.441406 14.121094 102.78125 14.21875 104.117188 14.351562 C 105.457031 14.484375 106.789062 14.648438 108.117188 14.84375 C 109.449219 15.042969 110.773438 15.269531 112.089844 15.535156 C 113.40625 15.796875 114.71875 16.089844 116.023438 16.417969 C 117.328125 16.742188 118.621094 17.101562 119.90625 17.492188 C 121.191406 17.882812 122.46875 18.304688 123.734375 18.753906 C 125 19.207031 126.253906 19.691406 127.496094 20.207031 C 128.734375 20.71875 129.964844 21.265625 131.179688 21.839844 C 132.394531 22.414062 133.59375 23.019531 134.777344 23.652344 C 135.964844 24.285156 137.132812 24.945312 138.285156 25.636719 C 139.4375 26.328125 140.574219 27.046875 141.691406 27.792969 C 142.808594 28.539062 143.90625 29.316406 144.984375 30.113281 C 146.066406 30.914062 147.125 31.742188 148.164062 32.59375 C 149.203125 33.449219 150.21875 34.324219 151.214844 35.226562 C 152.210938 36.128906 153.183594 37.054688 154.132812 38.007812 C 155.085938 38.957031 156.011719 39.929688 156.914062 40.925781 C 157.816406 41.921875 158.695312 42.9375 159.546875 43.976562 C 160.398438 45.015625 161.226562 46.074219 162.027344 47.15625 C 162.824219 48.234375 163.601562 49.332031 164.347656 50.449219 C 165.09375 51.566406 165.8125 52.703125 166.503906 53.855469 C 167.195312 55.007812 167.855469 56.175781 168.488281 57.363281 C 169.121094 58.546875 169.726562 59.746094 170.300781 60.960938 C 170.875 62.175781 171.421875 63.40625 171.933594 64.644531 C 172.449219 65.886719 172.933594 67.140625 173.386719 68.40625 C 173.835938 69.671875 174.257812 70.949219 174.648438 72.234375 C 175.039062 73.519531 175.398438 74.816406 175.722656 76.117188 C 176.050781 77.421875 176.34375 78.734375 176.605469 80.050781 C 176.871094 81.367188 177.097656 82.691406 177.296875 84.023438 C 177.492188 85.351562 177.65625 86.683594 177.789062 88.023438 C 177.921875 89.359375 178.019531 90.699219 178.085938 92.042969 C 178.152344 93.382812 178.183594 94.726562 178.183594 96.070312 Z M 178.183594 96.070312"/><path d="M 165.550781 96.070312 C 165.550781 97.207031 165.523438 98.34375 165.46875 99.480469 C 165.414062 100.617188 165.328125 101.75 165.21875 102.878906 C 165.105469 104.011719 164.96875 105.140625 164.800781 106.265625 C 164.632812 107.390625 164.4375 108.511719 164.21875 109.625 C 163.996094 110.742188 163.746094 111.851562 163.46875 112.953125 C 163.195312 114.054688 162.890625 115.152344 162.558594 116.238281 C 162.230469 117.328125 161.875 118.40625 161.492188 119.476562 C 161.105469 120.546875 160.699219 121.609375 160.261719 122.660156 C 159.828125 123.710938 159.367188 124.75 158.882812 125.777344 C 158.394531 126.804688 157.882812 127.820312 157.347656 128.824219 C 156.8125 129.828125 156.25 130.816406 155.667969 131.792969 C 155.082031 132.765625 154.472656 133.726562 153.84375 134.671875 C 153.210938 135.617188 152.554688 136.546875 151.878906 137.460938 C 151.203125 138.375 150.5 139.269531 149.78125 140.148438 C 149.058594 141.027344 148.316406 141.890625 147.554688 142.730469 C 146.789062 143.574219 146.003906 144.398438 145.203125 145.203125 C 144.398438 146.003906 143.574219 146.789062 142.730469 147.554688 C 141.890625 148.316406 141.027344 149.058594 140.148438 149.78125 C 139.269531 150.5 138.375 151.203125 137.460938 151.878906 C 136.546875 152.554688 135.617188 153.210938 134.671875 153.84375 C 133.726562 154.472656 132.765625 155.082031 131.792969 155.667969 C 130.816406 156.25 129.828125 156.8125 128.824219 157.347656 C 127.820312 157.882812 126.804688 158.394531 125.777344 158.882812 C 124.75 159.367188 123.710938 159.828125 122.660156 160.261719 C 121.609375 160.699219 120.546875 161.105469 119.476562 161.492188 C 118.40625 161.875 117.328125 162.230469 116.238281 162.558594 C 115.152344 162.890625 114.054688 163.195312 112.953125 163.46875 C 111.851562 163.746094 110.742188 163.996094 109.625 164.21875 C 108.511719 164.4375 107.390625 164.632812 106.265625 164.800781 C 105.140625 164.96875 104.011719 165.105469 102.878906 165.21875 C 101.75 165.328125 100.617188 165.414062 99.480469 165.46875 C 98.34375 165.523438 97.207031 165.550781 96.070312 165.550781 C 94.933594 165.550781 93.796875 165.523438 92.660156 165.46875 C 91.523438 165.414062 90.390625 165.328125 89.261719 165.21875 C 88.128906 165.105469 87 164.96875 85.875 164.800781 C 84.75 164.632812 83.628906 164.4375 82.515625 164.21875 C 81.398438 163.996094 80.289062 163.746094 79.1875 163.46875 C 78.085938 163.195312 76.988281 162.890625 75.902344 162.558594 C 74.8125 162.230469 73.734375 161.875 72.664062 161.492188 C 71.59375 161.105469 70.53125 160.699219 69.480469 160.261719 C 68.429688 159.828125 67.390625 159.367188 66.363281 158.882812 C 65.335938 158.394531 64.320312 157.882812 63.316406 157.347656 C 62.3125 156.8125 61.324219 156.25 60.347656 155.667969 C 59.375 155.082031 58.414062 154.472656 57.46875 153.84375 C 56.523438 153.210938 55.59375 152.554688 54.679688 151.878906 C 53.765625 151.203125 52.871094 150.5 51.992188 149.78125 C 51.113281 149.058594 50.25 148.316406 49.410156 147.554688 C 48.566406 146.789062 47.742188 146.003906 46.9375 145.203125 C 46.136719 144.398438 45.351562 143.574219 44.585938 142.730469 C 43.824219 141.890625 43.082031 141.027344 42.359375 140.148438 C 41.640625 139.269531 40.9375 138.375 40.261719 137.460938 C 39.585938 136.546875 38.929688 135.617188 38.296875 134.671875 C 37.667969 133.726562 37.058594 132.765625 36.472656 131.792969 C 35.890625 130.816406 35.328125 129.828125 34.792969 128.824219 C 34.257812 127.820312 33.746094 126.804688 33.257812 125.777344 C 32.773438 124.75 32.3125 123.710938 31.878906 122.660156 C 31.441406 121.609375 31.035156 120.546875 30.648438 119.476562 C 30.265625 118.40625 29.910156 117.328125 29.582031 116.238281 C 29.25 115.152344 28.945312 114.054688 28.671875 112.953125 C 28.394531 111.851562 28.144531 110.742188 27.921875 109.625 C 27.703125 108.511719 27.507812 107.390625 27.339844 106.265625 C 27.171875 105.140625 27.035156 104.011719 26.921875 102.878906 C 26.8125 101.75 26.726562 100.617188 26.671875 99.480469 C 26.617188 98.34375 26.589844 97.207031 26.589844 96.070312 C 26.589844 94.933594 26.617188 93.796875 26.671875 92.660156 C 26.726562 91.523438 26.8125 90.390625 26.921875 89.261719 C 27.035156 88.128906 27.171875 87 27.339844 85.875 C 27.507812 84.75 27.703125 83.628906 27.921875 82.515625 C 28.144531 81.398438 28.394531 80.289062 28.671875 79.1875 C 28.945312 78.085938 29.25 76.988281 29.582031 75.902344 C 29.910156 74.8125 30.265625 73.734375 30.648438 72.664062 C 31.035156 71.59375 31.441406 70.53125 31.878906 69.480469 C 32.3125 68.429688 32.773438 67.390625 33.257812 66.363281 C 33.746094 65.335938 34.257812 64.320312 34.792969 63.316406 C 35.328125 62.3125 35.890625 61.324219 36.472656 60.347656 C 37.058594 59.375 37.667969 58.414062 38.296875 57.46875 C 38.929688 56.523438 39.585938 55.59375 40.261719 54.679688 C 40.9375 53.765625 41.640625 52.871094 42.359375 51.992188 C 43.082031 51.113281 43.824219 50.25 44.585938 49.410156 C 45.351562 48.566406 46.136719 47.742188 46.9375 46.9375 C 47.742188 46.136719 48.566406 45.351562 49.410156 44.585938 C 50.25 43.824219 51.113281 43.082031 51.992188 42.359375 C 52.871094 41.640625 53.765625 40.9375 54.679688 40.261719 C 55.59375 39.585938 56.523438 38.929688 57.46875 38.296875 C 58.414062 37.667969 59.375 37.058594 60.347656 36.472656 C 61.324219 35.890625 62.3125 35.328125 63.316406 34.792969 C 64.320312 34.257812 65.335938 33.746094 66.363281 33.257812 C 67.390625 32.773438 68.429688 32.3125 69.480469 31.878906 C 70.53125 31.441406 71.59375 31.035156 72.664062 30.648438 C 73.734375 30.265625 74.8125 29.910156 75.902344 29.582031 C 76.988281 29.25 78.085938 28.945312 79.1875 28.671875 C 80.289062 28.394531 81.398438 28.144531 82.515625 27.921875 C 83.628906 27.703125 84.75 27.507812 85.875 27.339844 C 87 27.171875 88.128906 27.035156 89.261719 26.921875 C 90.390625 26.8125 91.523438 26.726562 92.660156 26.671875 C 93.796875 26.617188 94.933594 26.589844 96.070312 26.589844 C 97.207031 26.589844 98.34375 26.617188 99.480469 26.671875 C 100.617188 26.726562 101.75 26.8125 102.878906 26.921875 C 104.011719 27.035156 105.140625 27.171875 106.265625 27.339844 C 107.390625 27.507812 108.511719 27.703125 109.625 27.921875 C 110.742188 28.144531 111.851562 28.394531 112.953125 28.671875 C 114.054688 28.945312 115.152344 29.25 116.238281 29.582031 C 117.328125 29.910156 118.40625 30.265625 119.476562 30.648438 C 120.546875 31.035156 121.609375 31.441406 122.660156 31.878906 C 123.710938 32.3125 124.75 32.773438 125.777344 33.257812 C 126.804688 33.746094 127.820312 34.257812 128.824219 34.792969 C 129.828125 35.328125 130.816406 35.890625 131.792969 36.472656 C 132.765625 37.058594 133.726562 37.667969 134.671875 38.296875 C 135.617188 38.929688 136.546875 39.585938 137.460938 40.261719 C 138.375 40.9375 139.269531 41.640625 140.148438 42.359375 C 141.027344 43.082031 141.890625 43.824219 142.730469 44.585938 C 143.574219 45.351562 144.398438 46.136719 145.203125 46.9375 C 146.003906 47.742188 146.789062 48.566406 147.554688 49.410156 C 148.316406 50.25 149.058594 51.113281 149.78125 51.992188 C 150.5 52.871094 151.203125 53.765625 151.878906 54.679688 C 152.554688 55.59375 153.210938 56.523438 153.84375 57.46875 C 154.472656 58.414062 155.082031 59.375 155.667969 60.347656 C 156.25 61.324219 156.8125 62.3125 157.347656 63.316406 C 157.882812 64.320312 158.394531 65.335938 158.882812 66.363281 C 159.367188 67.390625 159.828125 68.429688 160.261719 69.480469 C 160.699219 70.53125 161.105469 71.59375 161.492188 72.664062 C 161.875 73.734375 162.230469 74.8125 162.558594 75.902344 C 162.890625 76.988281 163.195312 78.085938 163.46875 79.1875 C 163.746094 80.289062 163.996094 81.398438 164.21875 82.515625 C 164.4375 83.628906 164.632812 84.75 164.800781 85.875 C 164.96875 87 165.105469 88.128906 165.21875 89.261719 C 165.328125 90.390625 165.414062 91.523438 165.46875 92.660156 C 165.523438 93.796875 165.550781 94.933594 165.550781 96.070312 Z M 165.550781 96.070312"/><path fill="#E4E5D9" d="M 67.050781 88.242188 C 67.414062 79.539062 71.921875 71.042969 79.074219 66.058594 C 82.835938 63.4375 87.261719 61.777344 91.816406 61.230469 C 96.371094 60.683594 101.046875 61.242188 105.363281 62.800781 C 114.300781 66.027344 121.523438 73.765625 123.90625 82.949219 C 125.386719 88.648438 125.042969 94.804688 122.941406 100.304688 C 120.839844 105.804688 116.992188 110.621094 112.085938 113.886719 C 106.203125 117.808594 98.835938 119.4375 91.84375 118.386719 C 84.847656 117.335938 78.292969 113.625 73.777344 108.1875 C 69.191406 102.664062 66.753906 95.414062 67.050781 88.242188"/><path fill="#F8F8F5" d="M 76.0625 72.4375 C 78.378906 69.5 81.355469 67.09375 84.671875 65.363281 C 85.636719 64.863281 86.632812 64.414062 87.6875 64.160156 C 88.738281 63.902344 89.855469 63.84375 90.90625 64.113281 C 91.59375 64.292969 92.246094 64.613281 92.78125 65.074219 C 93.320312 65.539062 93.738281 66.144531 93.941406 66.824219 C 94.234375 67.804688 94.074219 68.878906 93.652344 69.8125 C 93.234375 70.746094 92.574219 71.550781 91.855469 72.28125 C 89.398438 74.800781 86.226562 76.59375 84.011719 79.332031 C 83.277344 80.242188 82.660156 81.238281 81.96875 82.183594 C 81.273438 83.125 80.492188 84.023438 79.503906 84.65625 C 78.894531 85.042969 78.210938 85.324219 77.496094 85.433594 C 76.777344 85.539062 76.03125 85.46875 75.367188 85.183594 C 74.347656 84.75 73.574219 83.84375 73.167969 82.816406 C 72.757812 81.792969 72.6875 80.65625 72.804688 79.554688 C 73.089844 76.925781 74.425781 74.511719 76.0625 72.4375"/><path fill="#CFCBC0" d="M 112.164062 66.355469 C 113.226562 67.976562 114.085938 69.722656 114.714844 71.554688 C 116.398438 76.445312 116.40625 81.894531 114.742188 86.789062 C 112.914062 92.160156 109.117188 96.785156 104.359375 99.882812 C 99.601562 102.976562 93.925781 104.566406 88.25 104.699219 C 82.015625 104.847656 75.746094 103.25 70.34375 100.132812 C 69.777344 99.804688 69.222656 99.453125 68.675781 99.09375 C 69.824219 102.394531 71.542969 105.496094 73.777344 108.1875 C 78.292969 113.625 84.847656 117.339844 91.839844 118.386719 C 98.835938 119.4375 106.203125 117.808594 112.085938 113.886719 C 116.988281 110.621094 120.839844 105.804688 122.941406 100.304688 C 125.042969 94.804688 125.386719 88.648438 123.90625 82.949219 C 122.167969 76.246094 117.84375 70.324219 112.164062 66.355469"/><path fill="#C1C2B0" d="M 82.3125 74.707031 C 83.359375 73.761719 84.726562 73.136719 86.136719 73.128906 C 87.65625 73.113281 89.167969 73.847656 90.085938 75.0625 C 91 76.273438 91.289062 77.9375 90.816406 79.382812 C 90.347656 80.8125 89.191406 81.953125 87.851562 82.640625 C 86.804688 83.175781 85.617188 83.46875 84.445312 83.363281 C 83.277344 83.257812 82.128906 82.738281 81.355469 81.851562 C 80.484375 80.847656 80.152344 79.425781 80.371094 78.113281 C 80.589844 76.800781 81.324219 75.597656 82.3125 74.707031"/><path fill="#C1C2B0" d="M 113.667969 78.121094 C 114.226562 77.601562 115.003906 77.34375 115.769531 77.335938 C 116.53125 77.332031 117.285156 77.558594 117.96875 77.902344 C 119.03125 78.441406 119.953125 79.292969 120.484375 80.359375 C 121.011719 81.429688 121.125 82.71875 120.6875 83.828125 C 120.441406 84.460938 120.019531 85.027344 119.488281 85.453125 C 118.953125 85.878906 118.3125 86.167969 117.636719 86.28125 C 116.292969 86.515625 114.855469 86.039062 113.886719 85.078125 C 113.230469 84.429688 112.789062 83.578125 112.589844 82.679688 C 112.390625 81.78125 112.433594 80.835938 112.667969 79.945312 C 112.847656 79.265625 113.152344 78.597656 113.667969 78.121094"/><path fill="#C1C2B0" d="M 78.1875 108.015625 C 76.367188 107.527344 74.628906 106.613281 73.351562 105.226562 C 72.902344 104.738281 72.507812 104.191406 72.230469 103.585938 C 71.957031 102.980469 71.800781 102.316406 71.824219 101.652344 C 71.84375 101.144531 71.964844 100.640625 72.199219 100.191406 C 72.433594 99.746094 72.78125 99.351562 73.207031 99.078125 C 73.910156 98.628906 74.792969 98.519531 75.617188 98.652344 C 76.441406 98.78125 77.210938 99.136719 77.933594 99.554688 C 79.449219 100.429688 80.804688 101.613281 81.753906 103.082031 C 82.050781 103.542969 82.308594 104.03125 82.464844 104.558594 C 82.621094 105.082031 82.675781 105.644531 82.5625 106.183594 C 82.421875 106.859375 82.007812 107.484375 81.417969 107.851562 C 80.945312 108.140625 80.382812 108.265625 79.828125 108.265625 C 79.273438 108.269531 78.722656 108.160156 78.1875 108.019531 L 78.1875 108.015625"/><path fill="#C1C2B0" d="M 95.3125 103.484375 C 95.804688 102.199219 96.890625 101.179688 98.160156 100.640625 C 99.355469 100.136719 100.722656 100.042969 101.976562 100.378906 C 103.230469 100.714844 104.367188 101.476562 105.148438 102.515625 C 105.78125 103.351562 106.1875 104.375 106.253906 105.425781 C 106.320312 106.476562 106.042969 107.550781 105.4375 108.414062 C 104.820312 109.292969 103.882812 109.925781 102.855469 110.238281 C 101.828125 110.546875 100.714844 110.542969 99.671875 110.285156 C 98.738281 110.054688 97.855469 109.632812 97.097656 109.039062 C 96.34375 108.449219 95.710938 107.683594 95.351562 106.792969 C 94.925781 105.75 94.910156 104.539062 95.3125 103.484375"/><path fill="#C1C2B0" d="M 100.453125 67.285156 C 101.117188 66.835938 101.941406 66.632812 102.738281 66.730469 C 103.535156 66.824219 104.289062 67.21875 104.824219 67.8125 C 105.476562 68.542969 105.785156 69.570312 105.636719 70.535156 C 105.492188 71.503906 104.894531 72.394531 104.054688 72.898438 C 103.320312 73.339844 102.410156 73.480469 101.578125 73.285156 C 100.742188 73.089844 99.992188 72.558594 99.527344 71.835938 C 99.066406 71.117188 98.894531 70.214844 99.066406 69.375 C 99.238281 68.535156 99.746094 67.769531 100.453125 67.285156"/><path fill="#B2B3A2" d="M 88.964844 74.007812 C 89.222656 74.941406 89.261719 75.933594 89.070312 76.882812 C 88.839844 78 88.296875 79.050781 87.511719 79.878906 C 86.730469 80.710938 85.710938 81.316406 84.609375 81.613281 C 83.503906 81.910156 82.320312 81.890625 81.226562 81.5625 C 81.183594 81.550781 81.144531 81.53125 81.101562 81.515625 C 81.183594 81.632812 81.265625 81.742188 81.359375 81.851562 C 82.128906 82.738281 83.277344 83.257812 84.445312 83.363281 C 85.617188 83.46875 86.804688 83.175781 87.851562 82.640625 C 89.191406 81.953125 90.347656 80.8125 90.816406 79.382812 C 91.289062 77.9375 91 76.273438 90.085938 75.058594 C 89.773438 74.648438 89.390625 74.296875 88.964844 74.007812"/><path fill="#B2B3A2" d="M 114.875 77.472656 C 114.429688 77.597656 114.007812 77.804688 113.667969 78.121094 C 113.152344 78.597656 112.847656 79.265625 112.667969 79.945312 C 112.429688 80.835938 112.390625 81.78125 112.589844 82.679688 C 112.789062 83.578125 113.234375 84.429688 113.886719 85.078125 C 114.855469 86.039062 116.292969 86.515625 117.636719 86.28125 C 118.3125 86.164062 118.953125 85.878906 119.488281 85.453125 C 119.507812 85.433594 119.527344 85.417969 119.546875 85.398438 C 118.617188 85.15625 117.722656 84.757812 116.933594 84.207031 C 116.269531 83.746094 115.671875 83.183594 115.210938 82.523438 C 114.75 81.859375 114.425781 81.09375 114.320312 80.292969 C 114.21875 79.523438 114.324219 78.726562 114.617188 78.003906 C 114.691406 77.824219 114.777344 77.644531 114.875 77.472656"/><path fill="#B2B3A2" d="M 101.007812 66.988281 C 100.816406 67.070312 100.628906 67.167969 100.453125 67.285156 C 99.746094 67.769531 99.238281 68.535156 99.066406 69.375 C 98.894531 70.214844 99.066406 71.117188 99.527344 71.839844 C 99.992188 72.558594 100.742188 73.089844 101.578125 73.285156 C 102.253906 73.445312 102.980469 73.367188 103.625 73.101562 C 102.835938 72.882812 102.113281 72.4375 101.570312 71.828125 C 101.019531 71.207031 100.65625 70.425781 100.539062 69.605469 C 100.417969 68.777344 100.550781 67.917969 100.910156 67.160156 C 100.9375 67.101562 100.976562 67.046875 101.007812 66.988281"/><path fill="#BABBA9" d="M 102.933594 100.730469 C 100.527344 102.097656 97.929688 103.109375 95.238281 103.765625 C 94.933594 104.753906 94.960938 105.839844 95.347656 106.796875 C 95.710938 107.683594 96.34375 108.449219 97.097656 109.039062 C 97.855469 109.632812 98.738281 110.054688 99.671875 110.285156 C 100.714844 110.539062 101.828125 110.546875 102.855469 110.238281 C 103.882812 109.925781 104.820312 109.292969 105.4375 108.414062 C 106.042969 107.550781 106.320312 106.476562 106.253906 105.425781 C 106.1875 104.375 105.785156 103.351562 105.148438 102.515625 C 104.570312 101.75 103.800781 101.136719 102.933594 100.730469"/><path fill="#A7A897" d="M 105.042969 102.394531 C 104.847656 103.730469 104.289062 105.011719 103.40625 106.03125 C 102.082031 107.554688 100.078125 108.472656 98.058594 108.472656 C 97.445312 108.472656 96.835938 108.375 96.246094 108.21875 C 96.503906 108.515625 96.789062 108.796875 97.097656 109.039062 C 97.855469 109.632812 98.738281 110.054688 99.671875 110.285156 C 100.714844 110.539062 101.828125 110.546875 102.855469 110.234375 C 103.882812 109.925781 104.820312 109.292969 105.4375 108.414062 C 106.039062 107.550781 106.320312 106.476562 106.253906 105.425781 C 106.1875 104.375 105.785156 103.351562 105.148438 102.511719 C 105.117188 102.472656 105.078125 102.4375 105.042969 102.394531"/><path fill="#BABBA9" d="M 71.921875 100.96875 C 71.867188 101.191406 71.832031 101.421875 71.824219 101.652344 C 71.800781 102.316406 71.957031 102.980469 72.234375 103.585938 C 72.507812 104.191406 72.902344 104.738281 73.351562 105.230469 C 74.628906 106.617188 76.367188 107.527344 78.1875 108.015625 C 78.722656 108.160156 79.273438 108.269531 79.828125 108.265625 C 80.382812 108.261719 80.945312 108.144531 81.417969 107.851562 C 82.007812 107.484375 82.421875 106.859375 82.5625 106.183594 C 82.675781 105.644531 82.621094 105.082031 82.464844 104.558594 C 82.4375 104.472656 82.394531 104.390625 82.363281 104.304688 C 78.730469 103.753906 75.195312 102.632812 71.921875 100.96875"/><path fill="#B2B3A2" d="M 81.863281 103.273438 C 81.816406 103.949219 81.519531 104.609375 81.023438 105.074219 C 80.503906 105.558594 79.804688 105.824219 79.097656 105.90625 C 78.390625 105.992188 77.667969 105.898438 76.972656 105.746094 C 75.230469 105.363281 73.582031 104.566406 72.183594 103.460938 C 72.203125 103.503906 72.214844 103.546875 72.234375 103.585938 C 72.507812 104.191406 72.902344 104.738281 73.351562 105.226562 C 74.628906 106.613281 76.367188 107.527344 78.191406 108.015625 C 78.726562 108.160156 79.273438 108.269531 79.828125 108.265625 C 80.382812 108.265625 80.945312 108.140625 81.417969 107.851562 C 82.007812 107.484375 82.421875 106.859375 82.5625 106.179688 C 82.675781 105.644531 82.621094 105.082031 82.464844 104.558594 C 82.328125 104.101562 82.109375 103.675781 81.863281 103.273438"/><path fill="#231F20" d="M 92.683594 90.925781 C 92.507812 90.933594 92.339844 91.015625 92.230469 91.15625 C 92.125 91.296875 92.082031 91.480469 92.125 91.652344 C 92.273438 92.339844 92.601562 92.984375 93.070312 93.511719 C 93.539062 94.042969 94.140625 94.441406 94.808594 94.667969 C 95.988281 95.074219 97.304688 94.914062 98.371094 94.292969 C 99.335938 93.734375 100.070312 92.820312 100.410156 91.753906 C 100.464844 91.601562 100.460938 91.433594 100.386719 91.289062 C 100.316406 91.140625 100.1875 91.03125 100.035156 90.980469 C 99.878906 90.929688 99.710938 90.949219 99.566406 91.027344 C 99.425781 91.105469 99.320312 91.238281 99.28125 91.398438 C 99.035156 92.171875 98.476562 92.863281 97.773438 93.273438 C 97.003906 93.71875 96.019531 93.832031 95.191406 93.550781 C 94.722656 93.386719 94.285156 93.097656 93.953125 92.726562 C 93.625 92.351562 93.390625 91.886719 93.285156 91.402344 C 93.226562 91.117188 92.972656 90.917969 92.683594 90.925781"/><path fill="#F3637A" d="M 84.054688 95.097656 C 84.050781 95.820312 83.625 96.511719 82.875 97.015625 C 82.125 97.523438 81.109375 97.804688 80.050781 97.796875 C 78.992188 97.789062 77.980469 97.496094 77.238281 96.980469 C 76.492188 96.464844 76.078125 95.769531 76.082031 95.046875 C 76.089844 93.542969 77.882812 92.335938 80.085938 92.347656 C 82.285156 92.363281 84.066406 93.59375 84.054688 95.097656"/><path fill="#F3637A" d="M 117.328125 95.308594 C 117.320312 96.8125 115.527344 98.023438 113.324219 98.007812 C 111.125 97.992188 109.347656 96.761719 109.355469 95.257812 C 109.359375 94.535156 109.785156 93.84375 110.535156 93.339844 C 111.285156 92.832031 112.300781 92.550781 113.359375 92.558594 C 114.417969 92.566406 115.429688 92.859375 116.175781 93.375 C 116.917969 93.890625 117.335938 94.585938 117.328125 95.308594"/><path fill="#231F20" d="M 86.566406 87.503906 C 86.5625 88.347656 86.21875 89.152344 85.621094 89.742188 C 85.023438 90.332031 84.210938 90.664062 83.367188 90.65625 C 82.527344 90.652344 81.71875 90.3125 81.128906 89.714844 C 80.535156 89.113281 80.207031 88.304688 80.210938 87.464844 C 80.222656 85.710938 81.652344 84.300781 83.410156 84.3125 C 84.25 84.316406 85.058594 84.65625 85.648438 85.253906 C 86.242188 85.855469 86.570312 86.664062 86.566406 87.503906"/><path fill="#FFF" d="M 83.40625 86.09375 C 83.40625 86.355469 83.300781 86.605469 83.113281 86.789062 C 82.925781 86.972656 82.675781 87.074219 82.410156 87.074219 C 82.148438 87.070312 81.898438 86.964844 81.714844 86.78125 C 81.53125 86.59375 81.429688 86.34375 81.429688 86.082031 C 81.433594 85.535156 81.878906 85.097656 82.425781 85.101562 C 82.96875 85.105469 83.410156 85.546875 83.40625 86.09375"/><path fill="#231F20" d="M 106.519531 90 C 106.097656 89.992188 105.746094 89.664062 105.714844 89.242188 C 105.644531 88.554688 105.777344 87.855469 106.09375 87.242188 C 106.410156 86.625 106.898438 86.113281 107.496094 85.765625 C 108.46875 85.207031 109.652344 85.125 110.691406 85.554688 C 111.414062 85.855469 112.019531 86.382812 112.417969 87.054688 C 112.816406 87.726562 112.984375 88.511719 112.898438 89.289062 C 112.847656 89.742188 112.4375 90.066406 111.984375 90.015625 C 111.53125 89.964844 111.207031 89.558594 111.257812 89.105469 C 111.304688 88.695312 111.207031 88.25 110.996094 87.890625 C 110.785156 87.535156 110.445312 87.238281 110.058594 87.078125 C 109.519531 86.855469 108.832031 86.902344 108.324219 87.195312 C 108.003906 87.378906 107.730469 87.664062 107.5625 87.992188 C 107.394531 88.324219 107.320312 88.714844 107.355469 89.082031 C 107.382812 89.316406 107.308594 89.554688 107.148438 89.730469 C 106.988281 89.90625 106.757812 90.003906 106.523438 90 L 106.519531 90"/><path fill="#BABBA9" d="M 115.90625 77.34375 C 116.128906 80.210938 115.820312 83.113281 115.007812 85.871094 C 115.816406 86.273438 116.746094 86.4375 117.636719 86.28125 C 118.3125 86.164062 118.953125 85.878906 119.484375 85.453125 C 120.019531 85.027344 120.4375 84.460938 120.6875 83.828125 C 121.121094 82.714844 121.011719 81.429688 120.484375 80.359375 C 119.953125 79.292969 119.03125 78.441406 117.96875 77.902344 C 117.328125 77.578125 116.621094 77.363281 115.90625 77.34375"/><path fill="#A7A897" d="M 115.632812 83.054688 C 115.476562 84.003906 115.28125 84.949219 115.007812 85.871094 C 115.011719 85.871094 115.015625 85.875 115.015625 85.875 C 115.40625 86.070312 115.824219 86.203125 116.25 86.277344 C 116.285156 86.28125 116.328125 86.285156 116.367188 86.292969 C 116.527344 86.316406 116.691406 86.328125 116.855469 86.332031 C 116.914062 86.332031 116.972656 86.335938 117.03125 86.332031 C 117.234375 86.332031 117.4375 86.316406 117.636719 86.28125 C 118.140625 86.195312 118.628906 86.011719 119.066406 85.746094 C 119.210938 85.660156 119.351562 85.558594 119.484375 85.453125 C 119.507812 85.4375 119.527344 85.417969 119.546875 85.398438 C 118.613281 85.15625 117.726562 84.757812 116.933594 84.207031 C 116.457031 83.878906 116.015625 83.492188 115.632812 83.058594 L 115.632812 83.054688"/><path fill="#A7A897" d="M 72.183594 103.460938 C 72.203125 103.5 72.214844 103.546875 72.234375 103.585938 C 72.507812 104.191406 72.902344 104.738281 73.351562 105.230469 C 74.628906 106.617188 76.367188 107.527344 78.1875 108.015625 C 78.722656 108.160156 79.273438 108.269531 79.828125 108.265625 C 80.382812 108.261719 80.945312 108.140625 81.417969 107.851562 C 82.007812 107.484375 82.421875 106.859375 82.5625 106.179688 C 82.675781 105.644531 82.621094 105.082031 82.464844 104.558594 C 82.4375 104.472656 82.394531 104.390625 82.363281 104.304688 C 82.121094 104.269531 81.875 104.238281 81.632812 104.195312 C 81.488281 104.523438 81.289062 104.828125 81.023438 105.074219 C 80.503906 105.558594 79.804688 105.824219 79.097656 105.90625 C 78.390625 105.988281 77.671875 105.902344 76.976562 105.746094 C 75.230469 105.363281 73.582031 104.566406 72.183594 103.460938"/><path fill="#E2E2D9" d="M 86.136719 73.128906 C 84.726562 73.136719 83.359375 73.761719 82.3125 74.707031 C 81.324219 75.597656 80.589844 76.800781 80.371094 78.113281 C 80.152344 79.425781 80.484375 80.847656 81.359375 81.851562 C 81.507812 82.027344 81.683594 82.171875 81.863281 82.316406 C 81.894531 82.273438 81.933594 82.230469 81.96875 82.183594 C 82.660156 81.238281 83.277344 80.242188 84.011719 79.332031 C 85.554688 77.421875 87.5625 75.964844 89.472656 74.410156 C 88.566406 73.59375 87.359375 73.117188 86.136719 73.128906"/><path fill="#B2B3A2" d="M 88.964844 74.007812 C 89.222656 74.941406 89.261719 75.933594 89.070312 76.882812 C 88.839844 78 88.296875 79.050781 87.511719 79.878906 C 86.730469 80.710938 85.710938 81.316406 84.609375 81.613281 C 83.503906 81.910156 82.320312 81.890625 81.226562 81.5625 C 81.183594 81.550781 81.144531 81.53125 81.101562 81.515625 C 81.183594 81.632812 81.265625 81.742188 81.359375 81.851562 C 82.128906 82.738281 83.277344 83.257812 84.445312 83.363281 C 85.617188 83.46875 86.804688 83.175781 87.851562 82.640625 C 89.191406 81.953125 90.347656 80.8125 90.816406 79.382812 C 91.289062 77.9375 91 76.273438 90.085938 75.058594 C 89.773438 74.648438 89.390625 74.296875 88.964844 74.007812"/><path fill="#C5C5B7" d="M 81.101562 81.515625 C 81.179688 81.628906 81.265625 81.742188 81.359375 81.851562 C 81.507812 82.023438 81.683594 82.171875 81.863281 82.316406 C 81.898438 82.273438 81.933594 82.226562 81.96875 82.183594 C 82.066406 82.046875 82.160156 81.90625 82.257812 81.765625 C 81.910156 81.722656 81.5625 81.664062 81.226562 81.5625 C 81.183594 81.550781 81.144531 81.53125 81.101562 81.515625 Z M 88.964844 74.007812 C 89.027344 74.234375 89.078125 74.46875 89.113281 74.699219 C 89.234375 74.605469 89.351562 74.507812 89.472656 74.410156 C 89.308594 74.269531 89.144531 74.128906 88.964844 74.007812"/><g clip-path="url(#b)"><path fill="#1C67F6" d="M 157.378906 225.035156 C 141.164062 219.4375 123.140625 221.71875 108.824219 231.269531 L 97.367188 238.910156 L 97.367188 152.882812 L 107.121094 145.664062 C 118.695312 137.097656 132.953125 133.742188 146.945312 136.136719 C 147.023438 136.15625 147.101562 136.171875 147.183594 136.179688 C 148.882812 136.476562 150.578125 136.855469 152.265625 137.328125 L 157.378906 138.75 Z M 52.527344 222.023438 C 46.476562 222.023438 40.402344 223.019531 34.5625 225.035156 L 34.5625 138.75 L 39.675781 137.328125 C 41.363281 136.855469 43.0625 136.476562 44.765625 136.179688 C 44.839844 136.171875 44.914062 136.160156 44.984375 136.140625 C 58.980469 133.742188 73.242188 137.09375 84.820312 145.664062 L 94.574219 152.882812 L 94.574219 238.910156 L 83.117188 231.269531 C 73.957031 225.160156 63.277344 222.023438 52.527344 222.023438 Z M 46.035156 123.875 C 53.230469 124.839844 83.703125 129.96875 92.910156 148.179688 L 86.480469 143.421875 C 74.699219 134.703125 60.285156 131.113281 46.035156 133.152344 Z M 60.699219 113.097656 C 67.050781 115.472656 88.246094 124.691406 93.425781 143.542969 C 86.046875 132.753906 71.867188 126.96875 60.699219 123.953125 Z M 131.242188 113.097656 L 131.242188 123.953125 C 120.074219 126.96875 105.890625 132.753906 98.515625 143.542969 C 103.695312 124.691406 124.890625 115.472656 131.242188 113.097656 Z M 145.90625 133.148438 C 131.652344 131.113281 117.238281 134.703125 105.460938 143.421875 L 99.03125 148.179688 C 108.238281 129.96875 138.707031 124.839844 145.90625 123.875 Z M 159.148438 136.347656 L 153.015625 134.636719 C 151.578125 134.238281 150.140625 133.902344 148.695312 133.621094 L 148.695312 122.300781 C 148.695312 121.90625 148.53125 121.53125 148.238281 121.265625 C 147.949219 121 147.558594 120.871094 147.167969 120.910156 C 146.546875 120.96875 141.164062 121.519531 134.03125 123.242188 L 134.03125 111.128906 C 134.03125 110.691406 133.820312 110.273438 133.46875 110.011719 C 133.113281 109.746094 132.652344 109.667969 132.230469 109.796875 C 131.898438 109.898438 102.734375 119.0625 95.96875 142.292969 C 89.203125 119.0625 60.042969 109.898438 59.710938 109.796875 C 59.285156 109.667969 58.828125 109.746094 58.472656 110.011719 C 58.117188 110.273438 57.910156 110.691406 57.910156 111.128906 L 57.910156 123.242188 C 50.777344 121.519531 45.398438 120.96875 44.773438 120.910156 C 44.378906 120.871094 43.992188 121 43.703125 121.265625 C 43.410156 121.53125 43.246094 121.90625 43.246094 122.300781 L 43.246094 133.621094 C 41.800781 133.902344 40.359375 134.238281 38.925781 134.636719 L 32.792969 136.347656 C 32.1875 136.515625 31.769531 137.066406 31.769531 137.691406 L 31.769531 227.03125 C 31.769531 227.488281 31.996094 227.917969 32.375 228.179688 C 32.75 228.441406 33.234375 228.5 33.660156 228.335938 L 33.925781 228.234375 C 49.703125 222.21875 67.515625 224.21875 81.566406 233.589844 L 95.195312 242.679688 C 95.214844 242.691406 95.234375 242.699219 95.25 242.710938 C 95.269531 242.722656 95.289062 242.738281 95.3125 242.75 C 95.324219 242.753906 95.335938 242.761719 95.351562 242.765625 C 95.371094 242.777344 95.394531 242.785156 95.417969 242.796875 C 95.453125 242.8125 95.492188 242.828125 95.53125 242.839844 C 95.554688 242.847656 95.574219 242.855469 95.597656 242.859375 C 95.640625 242.871094 95.683594 242.882812 95.726562 242.890625 C 95.746094 242.894531 95.765625 242.898438 95.78125 242.898438 C 95.84375 242.90625 95.910156 242.914062 95.96875 242.914062 C 96.035156 242.914062 96.097656 242.90625 96.15625 242.898438 C 96.175781 242.898438 96.195312 242.894531 96.214844 242.890625 C 96.257812 242.882812 96.300781 242.871094 96.34375 242.859375 C 96.367188 242.855469 96.386719 242.847656 96.410156 242.839844 C 96.449219 242.828125 96.488281 242.8125 96.523438 242.796875 C 96.546875 242.785156 96.570312 242.777344 96.59375 242.765625 C 96.605469 242.761719 96.617188 242.753906 96.628906 242.75 C 96.648438 242.738281 96.667969 242.722656 96.691406 242.710938 C 96.707031 242.699219 96.726562 242.691406 96.746094 242.679688 L 110.375 233.589844 C 124.421875 224.222656 142.234375 222.21875 158.015625 228.234375 L 158.277344 228.335938 C 158.707031 228.5 159.1875 228.441406 159.566406 228.179688 C 159.945312 227.917969 160.171875 227.492188 160.171875 227.03125 L 160.171875 137.691406 C 160.171875 137.066406 159.753906 136.515625 159.148438 136.347656"/></g><g clip-path="url(#c)"><path fill="#1C67F6" d="M 118.9375 57.492188 L 109.171875 60.9375 L 119.15625 58.476562 L 122.679688 76.390625 C 108.382812 83.402344 83.160156 82.769531 69.503906 76.390625 L 73.132812 58.382812 L 82.289062 60.53125 L 73.308594 57.472656 L 70.738281 56.589844 L 65.054688 54.652344 L 65.054688 60.117188 C 65.535156 60.34375 65.855469 60.820312 65.855469 61.382812 C 65.855469 61.828125 65.648438 62.222656 65.328125 62.480469 C 65.347656 62.5 65.367188 62.523438 65.378906 62.542969 C 65.742188 62.824219 65.957031 63.238281 66.113281 63.683594 C 67.347656 66.328125 66.769531 70.363281 66.082031 71.617188 C 66.0625 71.679688 66.03125 71.734375 65.992188 71.785156 C 65.980469 71.804688 65.957031 71.816406 65.949219 71.835938 C 65.949219 71.835938 65.949219 71.835938 65.9375 71.847656 C 65.90625 71.886719 65.875 71.917969 65.832031 71.949219 L 65.65625 71.949219 C 65.597656 71.960938 65.535156 71.949219 65.472656 71.949219 L 65.417969 71.949219 C 65.441406 71.761719 65.460938 71.585938 65.472656 71.402344 C 65.492188 71.101562 65.503906 70.808594 65.503906 70.507812 C 65.503906 70.207031 65.492188 69.917969 65.472656 69.628906 C 65.449219 69.335938 65.429688 69.035156 65.398438 68.746094 C 65.398438 69.035156 65.390625 69.335938 65.367188 69.628906 C 65.347656 69.917969 65.328125 70.207031 65.296875 70.5 C 65.265625 70.789062 65.222656 71.078125 65.171875 71.359375 C 65.140625 71.535156 65.097656 71.722656 65.054688 71.898438 C 65.054688 71.910156 65.046875 71.929688 65.046875 71.941406 L 63.699219 71.917969 C 63.699219 71.917969 63.699219 71.910156 63.699219 71.898438 C 63.65625 71.785156 63.625 71.671875 63.59375 71.546875 C 63.511719 71.222656 63.441406 70.890625 63.410156 70.5625 C 63.378906 70.890625 63.386719 71.234375 63.410156 71.578125 C 63.417969 71.691406 63.429688 71.792969 63.441406 71.910156 L 63.46875 71.910156 C 63.460938 71.910156 63.449219 71.910156 63.441406 71.910156 C 63.242188 71.929688 62.984375 71.949219 62.902344 71.898438 C 62.796875 71.824219 62.785156 71.648438 62.765625 71.496094 C 61.53125 67.65625 62.070312 64.359375 63.46875 62.886719 C 63.5 62.855469 63.53125 62.824219 63.554688 62.792969 C 63.585938 62.761719 63.617188 62.742188 63.648438 62.710938 C 63.667969 62.6875 63.6875 62.679688 63.707031 62.65625 C 63.71875 62.648438 63.730469 62.648438 63.730469 62.636719 L 63.738281 62.625 C 63.292969 62.386719 62.992188 61.921875 62.992188 61.382812 C 62.992188 60.757812 63.398438 60.21875 63.96875 60.042969 L 63.96875 54.296875 L 57.851562 52.214844 L 57.851562 51.300781 L 96.199219 38.085938 L 134.25 51.402344 L 134.25 52.214844 L 118.957031 57.480469 L 118.9375 57.492188"/></g></svg>